<mxfile host="app.diagrams.net" modified="2024-04-20T16:36:17.595Z" agent="Mozilla/5.0 (Windows NT 10.0; Win64; x64) AppleWebKit/537.36 (KHTML, like Gecko) Chrome/124.0.0.0 Safari/537.36" etag="BG5o-CkVl5PNQXBo-5IY" version="24.2.5" type="device">
  <diagram id="6a731a19-8d31-9384-78a2-239565b7b9f0" name="Page-1">
    <mxGraphModel dx="2575" dy="1188" grid="1" gridSize="10" guides="1" tooltips="1" connect="1" arrows="1" fold="1" page="1" pageScale="1" pageWidth="827" pageHeight="1169" background="none" math="0" shadow="0">
      <root>
        <mxCell id="0" />
        <mxCell id="1" parent="0" />
        <mxCell id="Bbr6ncQkwG-6qGuts37S-49" value="" style="rounded=0;whiteSpace=wrap;html=1;sketch=1;hachureGap=4;jiggle=2;curveFitting=1;fontFamily=Architects Daughter;fontSource=https%3A%2F%2Ffonts.googleapis.com%2Fcss%3Ffamily%3DArchitects%2BDaughter;dashed=1;strokeColor=#007FFF;align=center;verticalAlign=middle;fontSize=12;fontColor=default;fillColor=none;" vertex="1" parent="1">
          <mxGeometry x="939" y="1220" width="461" height="230" as="geometry" />
        </mxCell>
        <mxCell id="5UN-SLRmVNN7RmcCoFSe-7" value="" style="rounded=0;whiteSpace=wrap;html=1;sketch=1;hachureGap=4;jiggle=2;curveFitting=1;fontFamily=Architects Daughter;fontSource=https%3A%2F%2Ffonts.googleapis.com%2Fcss%3Ffamily%3DArchitects%2BDaughter;dashed=1;strokeColor=#007FFF;align=center;verticalAlign=middle;fontSize=12;fontColor=default;fillColor=none;" parent="1" vertex="1">
          <mxGeometry x="463.25" y="225" width="366.75" height="160" as="geometry" />
        </mxCell>
        <mxCell id="5UN-SLRmVNN7RmcCoFSe-6" value="" style="rounded=0;whiteSpace=wrap;html=1;sketch=1;hachureGap=4;jiggle=2;curveFitting=1;fontFamily=Architects Daughter;fontSource=https%3A%2F%2Ffonts.googleapis.com%2Fcss%3Ffamily%3DArchitects%2BDaughter;dashed=1;strokeColor=#007FFF;align=center;verticalAlign=middle;fontSize=12;fontColor=default;fillColor=none;" parent="1" vertex="1">
          <mxGeometry x="880" y="650" width="500" height="160" as="geometry" />
        </mxCell>
        <mxCell id="ih9siL4Ndi_D1jkrxEXA-113" value="" style="rounded=0;whiteSpace=wrap;html=1;sketch=1;hachureGap=4;jiggle=2;curveFitting=1;fontFamily=Architects Daughter;fontSource=https%3A%2F%2Ffonts.googleapis.com%2Fcss%3Ffamily%3DArchitects%2BDaughter;fillColor=none;" parent="1" vertex="1">
          <mxGeometry x="25" y="480" width="1342.5" height="320" as="geometry" />
        </mxCell>
        <mxCell id="ih9siL4Ndi_D1jkrxEXA-1" value="" style="rounded=0;whiteSpace=wrap;html=1;sketch=1;hachureGap=4;jiggle=2;curveFitting=1;fontFamily=Architects Daughter;fontSource=https%3A%2F%2Ffonts.googleapis.com%2Fcss%3Ffamily%3DArchitects%2BDaughter;fillColor=none;" parent="1" vertex="1">
          <mxGeometry x="10" y="60" width="800" height="320" as="geometry" />
        </mxCell>
        <mxCell id="ih9siL4Ndi_D1jkrxEXA-6" style="edgeStyle=orthogonalEdgeStyle;rounded=0;sketch=1;hachureGap=4;jiggle=2;curveFitting=1;orthogonalLoop=1;jettySize=auto;html=1;exitX=0.5;exitY=1;exitDx=0;exitDy=0;fontFamily=Architects Daughter;fontSource=https%3A%2F%2Ffonts.googleapis.com%2Fcss%3Ffamily%3DArchitects%2BDaughter;" parent="1" source="ih9siL4Ndi_D1jkrxEXA-1" target="ih9siL4Ndi_D1jkrxEXA-1" edge="1">
          <mxGeometry relative="1" as="geometry" />
        </mxCell>
        <mxCell id="ih9siL4Ndi_D1jkrxEXA-8" value="" style="shape=mxgraph.cisco.computers_and_peripherals.video_camera;sketch=0;html=1;pointerEvents=1;dashed=0;fillColor=#036897;strokeColor=#ffffff;strokeWidth=2;verticalLabelPosition=bottom;verticalAlign=top;align=center;outlineConnect=0;hachureGap=4;jiggle=2;curveFitting=1;fontFamily=Architects Daughter;fontSource=https%3A%2F%2Ffonts.googleapis.com%2Fcss%3Ffamily%3DArchitects%2BDaughter;" parent="1" vertex="1">
          <mxGeometry x="60" y="117.5" width="50" height="70" as="geometry" />
        </mxCell>
        <mxCell id="ih9siL4Ndi_D1jkrxEXA-10" value="" style="points=[[0.22,0.185,0],[0.5,0,0],[0.78,0.185,0],[0.975,0.49,0],[1,0.73,0],[0.975,0.97,0],[0.5,1,0],[0.025,0.97,0],[0,0.73,0],[0.025,0.49,0]];verticalLabelPosition=bottom;sketch=0;html=1;verticalAlign=top;aspect=fixed;align=center;pointerEvents=1;shape=mxgraph.cisco19.printer;fillColor=#005073;strokeColor=none;hachureGap=4;jiggle=2;curveFitting=1;fontFamily=Architects Daughter;fontSource=https%3A%2F%2Ffonts.googleapis.com%2Fcss%3Ffamily%3DArchitects%2BDaughter;" parent="1" vertex="1">
          <mxGeometry x="710" y="121" width="70" height="63" as="geometry" />
        </mxCell>
        <mxCell id="ih9siL4Ndi_D1jkrxEXA-14" value="" style="sketch=0;outlineConnect=0;fontColor=#232F3E;gradientColor=none;fillColor=#7AA116;strokeColor=none;dashed=0;verticalLabelPosition=bottom;verticalAlign=top;align=center;html=1;fontSize=12;fontStyle=0;aspect=fixed;pointerEvents=1;shape=mxgraph.aws4.sensor;hachureGap=4;jiggle=2;curveFitting=1;fontFamily=Architects Daughter;fontSource=https%3A%2F%2Ffonts.googleapis.com%2Fcss%3Ffamily%3DArchitects%2BDaughter;" parent="1" vertex="1">
          <mxGeometry x="600" y="120" width="60" height="65.01" as="geometry" />
        </mxCell>
        <mxCell id="ih9siL4Ndi_D1jkrxEXA-18" style="edgeStyle=orthogonalEdgeStyle;rounded=0;sketch=1;hachureGap=4;jiggle=2;curveFitting=1;orthogonalLoop=1;jettySize=auto;html=1;entryX=1;entryY=0.5;entryDx=0;entryDy=0;fontFamily=Architects Daughter;fontSource=https%3A%2F%2Ffonts.googleapis.com%2Fcss%3Ffamily%3DArchitects%2BDaughter;" parent="1" target="ih9siL4Ndi_D1jkrxEXA-1" edge="1">
          <mxGeometry relative="1" as="geometry">
            <mxPoint x="1710" y="560" as="sourcePoint" />
            <Array as="points">
              <mxPoint x="1710" y="330" />
              <mxPoint x="1710" y="220" />
            </Array>
          </mxGeometry>
        </mxCell>
        <mxCell id="ih9siL4Ndi_D1jkrxEXA-19" value="" style="sketch=0;outlineConnect=0;fontColor=#232F3E;gradientColor=none;fillColor=#7AA116;strokeColor=none;dashed=0;verticalLabelPosition=bottom;verticalAlign=top;align=center;html=1;fontSize=12;fontStyle=0;aspect=fixed;pointerEvents=1;shape=mxgraph.aws4.sensor;hachureGap=4;jiggle=2;curveFitting=1;fontFamily=Architects Daughter;fontSource=https%3A%2F%2Ffonts.googleapis.com%2Fcss%3Ffamily%3DArchitects%2BDaughter;" parent="1" vertex="1">
          <mxGeometry x="500" y="118.99" width="60" height="65.01" as="geometry" />
        </mxCell>
        <mxCell id="ih9siL4Ndi_D1jkrxEXA-20" value="" style="sketch=0;outlineConnect=0;fontColor=#232F3E;gradientColor=none;fillColor=#7AA116;strokeColor=none;dashed=0;verticalLabelPosition=bottom;verticalAlign=top;align=center;html=1;fontSize=12;fontStyle=0;aspect=fixed;pointerEvents=1;shape=mxgraph.aws4.sensor;hachureGap=4;jiggle=2;curveFitting=1;fontFamily=Architects Daughter;fontSource=https%3A%2F%2Ffonts.googleapis.com%2Fcss%3Ffamily%3DArchitects%2BDaughter;" parent="1" vertex="1">
          <mxGeometry x="402" y="120" width="60" height="65.01" as="geometry" />
        </mxCell>
        <mxCell id="ih9siL4Ndi_D1jkrxEXA-21" value="" style="shape=mxgraph.cisco.computers_and_peripherals.video_camera;sketch=0;html=1;pointerEvents=1;dashed=0;fillColor=#036897;strokeColor=#ffffff;strokeWidth=2;verticalLabelPosition=bottom;verticalAlign=top;align=center;outlineConnect=0;hachureGap=4;jiggle=2;curveFitting=1;fontFamily=Architects Daughter;fontSource=https%3A%2F%2Ffonts.googleapis.com%2Fcss%3Ffamily%3DArchitects%2BDaughter;" parent="1" vertex="1">
          <mxGeometry x="180" y="117.5" width="50" height="70" as="geometry" />
        </mxCell>
        <mxCell id="ih9siL4Ndi_D1jkrxEXA-22" value="" style="shape=mxgraph.cisco.computers_and_peripherals.video_camera;sketch=0;html=1;pointerEvents=1;dashed=0;fillColor=#036897;strokeColor=#ffffff;strokeWidth=2;verticalLabelPosition=bottom;verticalAlign=top;align=center;outlineConnect=0;hachureGap=4;jiggle=2;curveFitting=1;fontFamily=Architects Daughter;fontSource=https%3A%2F%2Ffonts.googleapis.com%2Fcss%3Ffamily%3DArchitects%2BDaughter;" parent="1" vertex="1">
          <mxGeometry x="290" y="117.5" width="50" height="70" as="geometry" />
        </mxCell>
        <mxCell id="ih9siL4Ndi_D1jkrxEXA-23" value="&lt;font style=&quot;font-size: 18px;&quot;&gt;192.168.10.2&lt;/font&gt;" style="text;html=1;align=center;verticalAlign=middle;resizable=0;points=[];autosize=1;strokeColor=none;fillColor=none;fontFamily=Architects Daughter;fontSource=https%3A%2F%2Ffonts.googleapis.com%2Fcss%3Ffamily%3DArchitects%2BDaughter;" parent="1" vertex="1">
          <mxGeometry x="20" y="75" width="100" height="40" as="geometry" />
        </mxCell>
        <mxCell id="ih9siL4Ndi_D1jkrxEXA-24" value="&lt;font style=&quot;font-size: 16px;&quot;&gt;SUBNET 1 (IoT devides) -&amp;nbsp; &amp;nbsp; &amp;nbsp; &amp;nbsp; &amp;nbsp;NETWORK IP : 192.168.10.0&amp;nbsp; &amp;nbsp; &amp;nbsp; &amp;nbsp; &amp;nbsp; MASK: 255.255.255.240&lt;/font&gt;" style="text;html=1;align=center;verticalAlign=middle;resizable=0;points=[];autosize=1;strokeColor=none;fillColor=none;fontFamily=Architects Daughter;fontSource=https%3A%2F%2Ffonts.googleapis.com%2Fcss%3Ffamily%3DArchitects%2BDaughter;" parent="1" vertex="1">
          <mxGeometry x="29.099999999999994" y="10" width="690" height="30" as="geometry" />
        </mxCell>
        <mxCell id="ih9siL4Ndi_D1jkrxEXA-25" value="&lt;font style=&quot;font-size: 15px;&quot;&gt;Sec. Cam 1&lt;/font&gt;" style="text;html=1;align=center;verticalAlign=middle;resizable=0;points=[];autosize=1;strokeColor=none;fillColor=none;fontFamily=Architects Daughter;fontSource=https%3A%2F%2Ffonts.googleapis.com%2Fcss%3Ffamily%3DArchitects%2BDaughter;" parent="1" vertex="1">
          <mxGeometry x="35" y="187.5" width="100" height="30" as="geometry" />
        </mxCell>
        <mxCell id="ih9siL4Ndi_D1jkrxEXA-26" value="&lt;font style=&quot;font-size: 15px;&quot;&gt;Sec. Cam 2&lt;/font&gt;" style="text;html=1;align=center;verticalAlign=middle;resizable=0;points=[];autosize=1;strokeColor=none;fillColor=none;fontFamily=Architects Daughter;fontSource=https%3A%2F%2Ffonts.googleapis.com%2Fcss%3Ffamily%3DArchitects%2BDaughter;" parent="1" vertex="1">
          <mxGeometry x="155" y="187.5" width="100" height="30" as="geometry" />
        </mxCell>
        <mxCell id="ih9siL4Ndi_D1jkrxEXA-27" value="&lt;font style=&quot;font-size: 15px;&quot;&gt;Sec. Cam 3&lt;/font&gt;" style="text;html=1;align=center;verticalAlign=middle;resizable=0;points=[];autosize=1;strokeColor=none;fillColor=none;fontFamily=Architects Daughter;fontSource=https%3A%2F%2Ffonts.googleapis.com%2Fcss%3Ffamily%3DArchitects%2BDaughter;" parent="1" vertex="1">
          <mxGeometry x="270" y="187.5" width="100" height="30" as="geometry" />
        </mxCell>
        <mxCell id="ih9siL4Ndi_D1jkrxEXA-28" value="&lt;font style=&quot;font-size: 15px;&quot;&gt;D. Sensor 1&lt;/font&gt;" style="text;html=1;align=center;verticalAlign=middle;resizable=0;points=[];autosize=1;strokeColor=none;fillColor=none;fontFamily=Architects Daughter;fontSource=https%3A%2F%2Ffonts.googleapis.com%2Fcss%3Ffamily%3DArchitects%2BDaughter;" parent="1" vertex="1">
          <mxGeometry x="382" y="187.5" width="100" height="30" as="geometry" />
        </mxCell>
        <mxCell id="ih9siL4Ndi_D1jkrxEXA-29" value="&lt;font style=&quot;font-size: 15px;&quot;&gt;D. Sensor 2&lt;/font&gt;" style="text;html=1;align=center;verticalAlign=middle;resizable=0;points=[];autosize=1;strokeColor=none;fillColor=none;fontFamily=Architects Daughter;fontSource=https%3A%2F%2Ffonts.googleapis.com%2Fcss%3Ffamily%3DArchitects%2BDaughter;" parent="1" vertex="1">
          <mxGeometry x="477" y="187.5" width="110" height="30" as="geometry" />
        </mxCell>
        <mxCell id="ih9siL4Ndi_D1jkrxEXA-30" value="&lt;font style=&quot;font-size: 15px;&quot;&gt;D. Sensor 3&lt;/font&gt;" style="text;html=1;align=center;verticalAlign=middle;resizable=0;points=[];autosize=1;strokeColor=none;fillColor=none;fontFamily=Architects Daughter;fontSource=https%3A%2F%2Ffonts.googleapis.com%2Fcss%3Ffamily%3DArchitects%2BDaughter;" parent="1" vertex="1">
          <mxGeometry x="590" y="187.5" width="100" height="30" as="geometry" />
        </mxCell>
        <mxCell id="ih9siL4Ndi_D1jkrxEXA-31" value="&lt;font style=&quot;font-size: 15px;&quot;&gt;3D Printer&lt;/font&gt;" style="text;html=1;align=center;verticalAlign=middle;resizable=0;points=[];autosize=1;strokeColor=none;fillColor=none;fontFamily=Architects Daughter;fontSource=https%3A%2F%2Ffonts.googleapis.com%2Fcss%3Ffamily%3DArchitects%2BDaughter;" parent="1" vertex="1">
          <mxGeometry x="700" y="187.5" width="100" height="30" as="geometry" />
        </mxCell>
        <mxCell id="ih9siL4Ndi_D1jkrxEXA-33" value="&lt;font style=&quot;font-size: 18px;&quot;&gt;192.168.10.3&lt;/font&gt;" style="text;html=1;align=center;verticalAlign=middle;resizable=0;points=[];autosize=1;strokeColor=none;fillColor=none;fontFamily=Architects Daughter;fontSource=https%3A%2F%2Ffonts.googleapis.com%2Fcss%3Ffamily%3DArchitects%2BDaughter;" parent="1" vertex="1">
          <mxGeometry x="160" y="72.5" width="100" height="40" as="geometry" />
        </mxCell>
        <mxCell id="ih9siL4Ndi_D1jkrxEXA-34" value="&lt;font style=&quot;font-size: 18px;&quot;&gt;192.168.10.4&lt;/font&gt;" style="text;html=1;align=center;verticalAlign=middle;resizable=0;points=[];autosize=1;strokeColor=none;fillColor=none;fontFamily=Architects Daughter;fontSource=https%3A%2F%2Ffonts.googleapis.com%2Fcss%3Ffamily%3DArchitects%2BDaughter;" parent="1" vertex="1">
          <mxGeometry x="275" y="77.5" width="110" height="40" as="geometry" />
        </mxCell>
        <mxCell id="ih9siL4Ndi_D1jkrxEXA-35" value="&lt;font style=&quot;font-size: 18px;&quot;&gt;192.168.10.5&lt;/font&gt;" style="text;html=1;align=center;verticalAlign=middle;resizable=0;points=[];autosize=1;strokeColor=none;fillColor=none;fontFamily=Architects Daughter;fontSource=https%3A%2F%2Ffonts.googleapis.com%2Fcss%3Ffamily%3DArchitects%2BDaughter;" parent="1" vertex="1">
          <mxGeometry x="377" y="77.5" width="110" height="40" as="geometry" />
        </mxCell>
        <mxCell id="ih9siL4Ndi_D1jkrxEXA-36" value="&lt;font style=&quot;font-size: 18px;&quot;&gt;192.168.10.6&lt;/font&gt;" style="text;html=1;align=center;verticalAlign=middle;resizable=0;points=[];autosize=1;strokeColor=none;fillColor=none;fontFamily=Architects Daughter;fontSource=https%3A%2F%2Ffonts.googleapis.com%2Fcss%3Ffamily%3DArchitects%2BDaughter;" parent="1" vertex="1">
          <mxGeometry x="485" y="77.5" width="100" height="40" as="geometry" />
        </mxCell>
        <mxCell id="ih9siL4Ndi_D1jkrxEXA-37" value="&lt;font style=&quot;font-size: 18px;&quot;&gt;192.168.10.7&lt;/font&gt;" style="text;html=1;align=center;verticalAlign=middle;resizable=0;points=[];autosize=1;strokeColor=none;fillColor=none;fontFamily=Architects Daughter;fontSource=https%3A%2F%2Ffonts.googleapis.com%2Fcss%3Ffamily%3DArchitects%2BDaughter;" parent="1" vertex="1">
          <mxGeometry x="590" y="77.5" width="100" height="40" as="geometry" />
        </mxCell>
        <mxCell id="ih9siL4Ndi_D1jkrxEXA-38" value="&lt;div&gt;&lt;font style=&quot;font-size: 18px;&quot;&gt;Router interface 1&lt;/font&gt;&lt;/div&gt;&lt;font style=&quot;font-size: 18px;&quot;&gt;192.168.10.1&lt;/font&gt;" style="text;html=1;align=center;verticalAlign=middle;resizable=0;points=[];autosize=1;strokeColor=none;fillColor=none;fontFamily=Architects Daughter;fontSource=https%3A%2F%2Ffonts.googleapis.com%2Fcss%3Ffamily%3DArchitects%2BDaughter;" parent="1" vertex="1">
          <mxGeometry x="1560" y="157.5" width="180" height="60" as="geometry" />
        </mxCell>
        <mxCell id="ih9siL4Ndi_D1jkrxEXA-40" value="" style="shape=mxgraph.cisco.computers_and_peripherals.pc;html=1;pointerEvents=1;dashed=1;fillColor=none;strokeColor=#007FFF;strokeWidth=2;verticalLabelPosition=bottom;verticalAlign=top;align=center;outlineConnect=0;hachureGap=4;fontFamily=Architects Daughter;fontSource=https%3A%2F%2Ffonts.googleapis.com%2Fcss%3Ffamily%3DArchitects%2BDaughter;shadow=0;" parent="1" vertex="1">
          <mxGeometry x="529" y="260" width="78" height="70" as="geometry" />
        </mxCell>
        <mxCell id="ih9siL4Ndi_D1jkrxEXA-42" value="" style="shape=mxgraph.cisco.computers_and_peripherals.pc;html=1;pointerEvents=1;dashed=1;fillColor=none;strokeColor=#007FFF;strokeWidth=2;verticalLabelPosition=bottom;verticalAlign=top;align=center;outlineConnect=0;hachureGap=4;fontFamily=Architects Daughter;fontSource=https%3A%2F%2Ffonts.googleapis.com%2Fcss%3Ffamily%3DArchitects%2BDaughter;shadow=0;" parent="1" vertex="1">
          <mxGeometry x="706" y="270" width="78" height="70" as="geometry" />
        </mxCell>
        <mxCell id="ih9siL4Ndi_D1jkrxEXA-43" value="&lt;font style=&quot;font-size: 18px;&quot;&gt;192.168.10.9&lt;/font&gt;" style="text;html=1;align=center;verticalAlign=middle;resizable=0;points=[];autosize=1;strokeColor=none;fillColor=none;fontFamily=Architects Daughter;fontSource=https%3A%2F%2Ffonts.googleapis.com%2Fcss%3Ffamily%3DArchitects%2BDaughter;" parent="1" vertex="1">
          <mxGeometry x="518" y="217.5" width="100" height="40" as="geometry" />
        </mxCell>
        <mxCell id="ih9siL4Ndi_D1jkrxEXA-44" value="&lt;font style=&quot;font-size: 18px;&quot;&gt;192.168.10.10&lt;/font&gt;" style="text;html=1;align=center;verticalAlign=middle;resizable=0;points=[];autosize=1;strokeColor=none;fillColor=none;fontFamily=Architects Daughter;fontSource=https%3A%2F%2Ffonts.googleapis.com%2Fcss%3Ffamily%3DArchitects%2BDaughter;" parent="1" vertex="1">
          <mxGeometry x="674" y="217.5" width="110" height="40" as="geometry" />
        </mxCell>
        <mxCell id="ih9siL4Ndi_D1jkrxEXA-45" value="&lt;font style=&quot;font-size: 15px;&quot;&gt;Future device 1&lt;/font&gt;" style="text;html=1;align=center;verticalAlign=middle;resizable=0;points=[];autosize=1;strokeColor=none;fillColor=none;fontFamily=Architects Daughter;fontSource=https%3A%2F%2Ffonts.googleapis.com%2Fcss%3Ffamily%3DArchitects%2BDaughter;" parent="1" vertex="1">
          <mxGeometry x="503" y="340" width="130" height="30" as="geometry" />
        </mxCell>
        <mxCell id="ih9siL4Ndi_D1jkrxEXA-46" value="&lt;font style=&quot;font-size: 15px;&quot;&gt;Future device 2&lt;/font&gt;" style="text;html=1;align=center;verticalAlign=middle;resizable=0;points=[];autosize=1;strokeColor=none;fillColor=none;fontFamily=Architects Daughter;fontSource=https%3A%2F%2Ffonts.googleapis.com%2Fcss%3Ffamily%3DArchitects%2BDaughter;" parent="1" vertex="1">
          <mxGeometry x="649" y="340" width="140" height="30" as="geometry" />
        </mxCell>
        <mxCell id="ih9siL4Ndi_D1jkrxEXA-47" value="&lt;font style=&quot;font-size: 18px;&quot;&gt;192.168.10.11 - 192.168.10.14&amp;nbsp; &amp;nbsp;&amp;lt;- Empty IPs&amp;nbsp;&lt;/font&gt;&lt;span style=&quot;font-size: 18px; background-color: initial;&quot;&gt;range&lt;/span&gt;&lt;div&gt;&lt;span style=&quot;font-size: 18px; background-color: initial;&quot;&gt;Both included&lt;/span&gt;&lt;/div&gt;" style="text;html=1;align=center;verticalAlign=middle;resizable=0;points=[];autosize=1;strokeColor=default;fillColor=none;fontFamily=Architects Daughter;fontSource=https%3A%2F%2Ffonts.googleapis.com%2Fcss%3Ffamily%3DArchitects%2BDaughter;" parent="1" vertex="1">
          <mxGeometry x="22" y="290" width="380" height="60" as="geometry" />
        </mxCell>
        <mxCell id="ih9siL4Ndi_D1jkrxEXA-50" value="&lt;font style=&quot;font-size: 18px;&quot;&gt;EXPANSIONS&lt;/font&gt;" style="text;html=1;align=center;verticalAlign=middle;resizable=0;points=[];autosize=1;fontFamily=Architects Daughter;fontSource=https%3A%2F%2Ffonts.googleapis.com%2Fcss%3Ffamily%3DArchitects%2BDaughter;fillColor=#007FFF;" parent="1" vertex="1">
          <mxGeometry x="580" y="370" width="130" height="40" as="geometry" />
        </mxCell>
        <mxCell id="ih9siL4Ndi_D1jkrxEXA-92" value="&lt;font style=&quot;font-size: 18px;&quot;&gt;&lt;div style=&quot;font-size: 12px;&quot;&gt;&lt;font style=&quot;font-size: 18px;&quot;&gt;Router interface 2&lt;/font&gt;&lt;/div&gt;192.168.10.17&lt;/font&gt;&lt;div&gt;&lt;br&gt;&lt;/div&gt;" style="text;html=1;align=center;verticalAlign=middle;resizable=0;points=[];autosize=1;strokeColor=none;fillColor=none;fontFamily=Architects Daughter;fontSource=https%3A%2F%2Ffonts.googleapis.com%2Fcss%3Ffamily%3DArchitects%2BDaughter;" parent="1" vertex="1">
          <mxGeometry x="1520" y="507.5" width="190" height="70" as="geometry" />
        </mxCell>
        <mxCell id="ih9siL4Ndi_D1jkrxEXA-123" value="&lt;font style=&quot;font-size: 16px;&quot;&gt;SUBNET 2 (Economic side) -&amp;nbsp;&lt;/font&gt;&lt;span style=&quot;font-size: 16px;&quot;&gt;&amp;nbsp; &amp;nbsp; &amp;nbsp; &amp;nbsp; &amp;nbsp;NETWORK IP :&amp;nbsp;&lt;/span&gt;&lt;span style=&quot;font-size: 16px;&quot;&gt;192.168.10.16&lt;/span&gt;&lt;span style=&quot;font-size: 16px;&quot;&gt;&amp;nbsp; &amp;nbsp; &amp;nbsp; &amp;nbsp; &amp;nbsp; MASK: 255.255.255.224&lt;/span&gt;" style="text;html=1;align=center;verticalAlign=middle;resizable=0;points=[];autosize=1;strokeColor=none;fillColor=none;fontFamily=Architects Daughter;fontSource=https%3A%2F%2Ffonts.googleapis.com%2Fcss%3Ffamily%3DArchitects%2BDaughter;" parent="1" vertex="1">
          <mxGeometry x="40" y="430" width="730" height="30" as="geometry" />
        </mxCell>
        <mxCell id="ih9siL4Ndi_D1jkrxEXA-124" value="&lt;font style=&quot;font-size: 15px;&quot;&gt;Person 1&lt;/font&gt;" style="text;html=1;align=center;verticalAlign=middle;resizable=0;points=[];autosize=1;strokeColor=none;fillColor=none;fontFamily=Architects Daughter;fontSource=https%3A%2F%2Ffonts.googleapis.com%2Fcss%3Ffamily%3DArchitects%2BDaughter;" parent="1" vertex="1">
          <mxGeometry x="52.9" y="607.5" width="80" height="30" as="geometry" />
        </mxCell>
        <mxCell id="ih9siL4Ndi_D1jkrxEXA-125" value="&lt;span style=&quot;font-size: 15px;&quot;&gt;Person 2&lt;/span&gt;" style="text;html=1;align=center;verticalAlign=middle;resizable=0;points=[];autosize=1;strokeColor=none;fillColor=none;fontFamily=Architects Daughter;fontSource=https%3A%2F%2Ffonts.googleapis.com%2Fcss%3Ffamily%3DArchitects%2BDaughter;" parent="1" vertex="1">
          <mxGeometry x="170" y="608.99" width="90" height="30" as="geometry" />
        </mxCell>
        <mxCell id="ih9siL4Ndi_D1jkrxEXA-126" value="&lt;span style=&quot;font-size: 15px;&quot;&gt;Person 3&lt;/span&gt;" style="text;html=1;align=center;verticalAlign=middle;resizable=0;points=[];autosize=1;strokeColor=none;fillColor=none;fontFamily=Architects Daughter;fontSource=https%3A%2F%2Ffonts.googleapis.com%2Fcss%3Ffamily%3DArchitects%2BDaughter;" parent="1" vertex="1">
          <mxGeometry x="290" y="607.5" width="90" height="30" as="geometry" />
        </mxCell>
        <mxCell id="ih9siL4Ndi_D1jkrxEXA-127" value="&lt;span style=&quot;font-size: 15px;&quot;&gt;Person 4&lt;/span&gt;" style="text;html=1;align=center;verticalAlign=middle;resizable=0;points=[];autosize=1;strokeColor=none;fillColor=none;fontFamily=Architects Daughter;fontSource=https%3A%2F%2Ffonts.googleapis.com%2Fcss%3Ffamily%3DArchitects%2BDaughter;" parent="1" vertex="1">
          <mxGeometry x="402" y="607.5" width="90" height="30" as="geometry" />
        </mxCell>
        <mxCell id="ih9siL4Ndi_D1jkrxEXA-128" value="&lt;span style=&quot;font-size: 15px;&quot;&gt;Person 5&lt;/span&gt;" style="text;html=1;align=center;verticalAlign=middle;resizable=0;points=[];autosize=1;strokeColor=none;fillColor=none;fontFamily=Architects Daughter;fontSource=https%3A%2F%2Ffonts.googleapis.com%2Fcss%3Ffamily%3DArchitects%2BDaughter;" parent="1" vertex="1">
          <mxGeometry x="502" y="607.5" width="90" height="30" as="geometry" />
        </mxCell>
        <mxCell id="ih9siL4Ndi_D1jkrxEXA-129" value="&lt;span style=&quot;font-size: 15px;&quot;&gt;Person 6&lt;/span&gt;" style="text;html=1;align=center;verticalAlign=middle;resizable=0;points=[];autosize=1;strokeColor=none;fillColor=none;fontFamily=Architects Daughter;fontSource=https%3A%2F%2Ffonts.googleapis.com%2Fcss%3Ffamily%3DArchitects%2BDaughter;" parent="1" vertex="1">
          <mxGeometry x="610" y="607.5" width="90" height="30" as="geometry" />
        </mxCell>
        <mxCell id="ih9siL4Ndi_D1jkrxEXA-130" value="&lt;span style=&quot;font-size: 15px;&quot;&gt;Person 7&lt;/span&gt;" style="text;html=1;align=center;verticalAlign=middle;resizable=0;points=[];autosize=1;strokeColor=none;fillColor=none;fontFamily=Architects Daughter;fontSource=https%3A%2F%2Ffonts.googleapis.com%2Fcss%3Ffamily%3DArchitects%2BDaughter;" parent="1" vertex="1">
          <mxGeometry x="720" y="607.5" width="90" height="30" as="geometry" />
        </mxCell>
        <mxCell id="ih9siL4Ndi_D1jkrxEXA-131" value="&lt;font style=&quot;font-size: 18px;&quot;&gt;192.168.10.18&lt;/font&gt;" style="text;html=1;align=center;verticalAlign=middle;resizable=0;points=[];autosize=1;strokeColor=none;fillColor=none;fontFamily=Architects Daughter;fontSource=https%3A%2F%2Ffonts.googleapis.com%2Fcss%3Ffamily%3DArchitects%2BDaughter;" parent="1" vertex="1">
          <mxGeometry x="45.00000000000001" y="492.5" width="110" height="40" as="geometry" />
        </mxCell>
        <mxCell id="ih9siL4Ndi_D1jkrxEXA-132" value="&lt;font style=&quot;font-size: 18px;&quot;&gt;192.168.10.19&lt;/font&gt;" style="text;html=1;align=center;verticalAlign=middle;resizable=0;points=[];autosize=1;strokeColor=none;fillColor=none;fontFamily=Architects Daughter;fontSource=https%3A%2F%2Ffonts.googleapis.com%2Fcss%3Ffamily%3DArchitects%2BDaughter;" parent="1" vertex="1">
          <mxGeometry x="160" y="492.5" width="110" height="40" as="geometry" />
        </mxCell>
        <mxCell id="ih9siL4Ndi_D1jkrxEXA-133" value="&lt;font style=&quot;font-size: 18px;&quot;&gt;192.168.10.20&lt;/font&gt;" style="text;html=1;align=center;verticalAlign=middle;resizable=0;points=[];autosize=1;strokeColor=none;fillColor=none;fontFamily=Architects Daughter;fontSource=https%3A%2F%2Ffonts.googleapis.com%2Fcss%3Ffamily%3DArchitects%2BDaughter;" parent="1" vertex="1">
          <mxGeometry x="287.9" y="492.5" width="110" height="40" as="geometry" />
        </mxCell>
        <mxCell id="ih9siL4Ndi_D1jkrxEXA-134" value="&lt;font style=&quot;font-size: 18px;&quot;&gt;192.168.10.21&lt;/font&gt;" style="text;html=1;align=center;verticalAlign=middle;resizable=0;points=[];autosize=1;strokeColor=none;fillColor=none;fontFamily=Architects Daughter;fontSource=https%3A%2F%2Ffonts.googleapis.com%2Fcss%3Ffamily%3DArchitects%2BDaughter;" parent="1" vertex="1">
          <mxGeometry x="389.9" y="492.5" width="110" height="40" as="geometry" />
        </mxCell>
        <mxCell id="ih9siL4Ndi_D1jkrxEXA-135" value="&lt;font style=&quot;font-size: 18px;&quot;&gt;192.168.10.22&lt;/font&gt;" style="text;html=1;align=center;verticalAlign=middle;resizable=0;points=[];autosize=1;strokeColor=none;fillColor=none;fontFamily=Architects Daughter;fontSource=https%3A%2F%2Ffonts.googleapis.com%2Fcss%3Ffamily%3DArchitects%2BDaughter;" parent="1" vertex="1">
          <mxGeometry x="492.9" y="492.5" width="110" height="40" as="geometry" />
        </mxCell>
        <mxCell id="ih9siL4Ndi_D1jkrxEXA-136" value="&lt;font style=&quot;font-size: 18px;&quot;&gt;192.168.10.23&lt;/font&gt;" style="text;html=1;align=center;verticalAlign=middle;resizable=0;points=[];autosize=1;strokeColor=none;fillColor=none;fontFamily=Architects Daughter;fontSource=https%3A%2F%2Ffonts.googleapis.com%2Fcss%3Ffamily%3DArchitects%2BDaughter;" parent="1" vertex="1">
          <mxGeometry x="597.9" y="492.5" width="110" height="40" as="geometry" />
        </mxCell>
        <mxCell id="ih9siL4Ndi_D1jkrxEXA-143" value="&lt;font style=&quot;font-size: 18px;&quot;&gt;192.168.10.33 - 192.168.10.46&amp;nbsp; &amp;nbsp;&amp;lt;- Empty IPs&amp;nbsp;&lt;/font&gt;&lt;span style=&quot;font-size: 18px; background-color: initial;&quot;&gt;range&lt;/span&gt;&lt;div&gt;&lt;span style=&quot;font-size: 18px;&quot;&gt;Both included&lt;/span&gt;&lt;/div&gt;" style="text;html=1;align=center;verticalAlign=middle;resizable=0;points=[];autosize=1;strokeColor=default;fillColor=none;fontFamily=Architects Daughter;fontSource=https%3A%2F%2Ffonts.googleapis.com%2Fcss%3Ffamily%3DArchitects%2BDaughter;" parent="1" vertex="1">
          <mxGeometry x="40" y="720" width="400" height="60" as="geometry" />
        </mxCell>
        <mxCell id="ih9siL4Ndi_D1jkrxEXA-151" value="&lt;span style=&quot;font-size: 15px;&quot;&gt;Person 8&lt;/span&gt;" style="text;html=1;align=center;verticalAlign=middle;resizable=0;points=[];autosize=1;strokeColor=none;fillColor=none;fontFamily=Architects Daughter;fontSource=https%3A%2F%2Ffonts.googleapis.com%2Fcss%3Ffamily%3DArchitects%2BDaughter;" parent="1" vertex="1">
          <mxGeometry x="834.5" y="612.5" width="90" height="30" as="geometry" />
        </mxCell>
        <mxCell id="ih9siL4Ndi_D1jkrxEXA-152" value="&lt;span style=&quot;font-size: 15px;&quot;&gt;Person 9&lt;/span&gt;" style="text;html=1;align=center;verticalAlign=middle;resizable=0;points=[];autosize=1;strokeColor=none;fillColor=none;fontFamily=Architects Daughter;fontSource=https%3A%2F%2Ffonts.googleapis.com%2Fcss%3Ffamily%3DArchitects%2BDaughter;" parent="1" vertex="1">
          <mxGeometry x="946.5" y="612.5" width="90" height="30" as="geometry" />
        </mxCell>
        <mxCell id="ih9siL4Ndi_D1jkrxEXA-153" value="&lt;span style=&quot;font-size: 15px;&quot;&gt;Person 10&lt;/span&gt;" style="text;html=1;align=center;verticalAlign=middle;resizable=0;points=[];autosize=1;strokeColor=none;fillColor=none;fontFamily=Architects Daughter;fontSource=https%3A%2F%2Ffonts.googleapis.com%2Fcss%3Ffamily%3DArchitects%2BDaughter;" parent="1" vertex="1">
          <mxGeometry x="1046.5" y="612.5" width="90" height="30" as="geometry" />
        </mxCell>
        <mxCell id="ih9siL4Ndi_D1jkrxEXA-154" value="&lt;span style=&quot;font-size: 15px;&quot;&gt;Person 11&lt;/span&gt;" style="text;html=1;align=center;verticalAlign=middle;resizable=0;points=[];autosize=1;strokeColor=none;fillColor=none;fontFamily=Architects Daughter;fontSource=https%3A%2F%2Ffonts.googleapis.com%2Fcss%3Ffamily%3DArchitects%2BDaughter;" parent="1" vertex="1">
          <mxGeometry x="1159.5" y="612.5" width="80" height="30" as="geometry" />
        </mxCell>
        <mxCell id="ih9siL4Ndi_D1jkrxEXA-155" value="&lt;span style=&quot;font-size: 15px;&quot;&gt;Person 12&lt;/span&gt;" style="text;html=1;align=center;verticalAlign=middle;resizable=0;points=[];autosize=1;strokeColor=none;fillColor=none;fontFamily=Architects Daughter;fontSource=https%3A%2F%2Ffonts.googleapis.com%2Fcss%3Ffamily%3DArchitects%2BDaughter;" parent="1" vertex="1">
          <mxGeometry x="1264.5" y="612.5" width="90" height="30" as="geometry" />
        </mxCell>
        <mxCell id="ih9siL4Ndi_D1jkrxEXA-156" value="&lt;font style=&quot;font-size: 18px;&quot;&gt;192.168.10.24&lt;/font&gt;" style="text;html=1;align=center;verticalAlign=middle;resizable=0;points=[];autosize=1;strokeColor=none;fillColor=none;fontFamily=Architects Daughter;fontSource=https%3A%2F%2Ffonts.googleapis.com%2Fcss%3Ffamily%3DArchitects%2BDaughter;" parent="1" vertex="1">
          <mxGeometry x="707.4" y="492.5" width="120" height="40" as="geometry" />
        </mxCell>
        <mxCell id="ih9siL4Ndi_D1jkrxEXA-157" value="&lt;font style=&quot;font-size: 18px;&quot;&gt;192.168.10.25&lt;/font&gt;" style="text;html=1;align=center;verticalAlign=middle;resizable=0;points=[];autosize=1;strokeColor=none;fillColor=none;fontFamily=Architects Daughter;fontSource=https%3A%2F%2Ffonts.googleapis.com%2Fcss%3Ffamily%3DArchitects%2BDaughter;" parent="1" vertex="1">
          <mxGeometry x="832" y="495" width="120" height="40" as="geometry" />
        </mxCell>
        <mxCell id="ih9siL4Ndi_D1jkrxEXA-158" value="&lt;font style=&quot;font-size: 18px;&quot;&gt;192.168.10.26&lt;/font&gt;" style="text;html=1;align=center;verticalAlign=middle;resizable=0;points=[];autosize=1;strokeColor=none;fillColor=none;fontFamily=Architects Daughter;fontSource=https%3A%2F%2Ffonts.googleapis.com%2Fcss%3Ffamily%3DArchitects%2BDaughter;" parent="1" vertex="1">
          <mxGeometry x="939" y="495" width="110" height="40" as="geometry" />
        </mxCell>
        <mxCell id="ih9siL4Ndi_D1jkrxEXA-159" value="&lt;font style=&quot;font-size: 18px;&quot;&gt;192.168.10.27&lt;/font&gt;" style="text;html=1;align=center;verticalAlign=middle;resizable=0;points=[];autosize=1;strokeColor=none;fillColor=none;fontFamily=Architects Daughter;fontSource=https%3A%2F%2Ffonts.googleapis.com%2Fcss%3Ffamily%3DArchitects%2BDaughter;" parent="1" vertex="1">
          <mxGeometry x="1042" y="495" width="110" height="40" as="geometry" />
        </mxCell>
        <mxCell id="ih9siL4Ndi_D1jkrxEXA-160" value="&lt;font style=&quot;font-size: 18px;&quot;&gt;192.168.10.28&lt;/font&gt;" style="text;html=1;align=center;verticalAlign=middle;resizable=0;points=[];autosize=1;strokeColor=none;fillColor=none;fontFamily=Architects Daughter;fontSource=https%3A%2F%2Ffonts.googleapis.com%2Fcss%3Ffamily%3DArchitects%2BDaughter;" parent="1" vertex="1">
          <mxGeometry x="1147" y="495" width="110" height="40" as="geometry" />
        </mxCell>
        <mxCell id="ih9siL4Ndi_D1jkrxEXA-162" style="edgeStyle=orthogonalEdgeStyle;rounded=0;sketch=1;hachureGap=4;jiggle=2;curveFitting=1;orthogonalLoop=1;jettySize=auto;html=1;entryX=1.001;entryY=0.3;entryDx=0;entryDy=0;entryPerimeter=0;fontFamily=Architects Daughter;fontSource=https%3A%2F%2Ffonts.googleapis.com%2Fcss%3Ffamily%3DArchitects%2BDaughter;" parent="1" target="ih9siL4Ndi_D1jkrxEXA-113" edge="1">
          <mxGeometry relative="1" as="geometry">
            <mxPoint x="1690" y="576" as="sourcePoint" />
          </mxGeometry>
        </mxCell>
        <mxCell id="ih9siL4Ndi_D1jkrxEXA-164" value="&lt;font style=&quot;font-size: 18px;&quot;&gt;&lt;div style=&quot;font-size: 12px;&quot;&gt;&lt;font style=&quot;font-size: 18px;&quot;&gt;Router interface 3&lt;/font&gt;&lt;/div&gt;192.168.10.49&lt;/font&gt;&lt;div&gt;&lt;font style=&quot;font-size: 18px;&quot;&gt;&lt;br&gt;&lt;/font&gt;&lt;/div&gt;" style="text;html=1;align=center;verticalAlign=middle;resizable=0;points=[];autosize=1;strokeColor=none;fillColor=none;fontFamily=Architects Daughter;fontSource=https%3A%2F%2Ffonts.googleapis.com%2Fcss%3Ffamily%3DArchitects%2BDaughter;" parent="1" vertex="1">
          <mxGeometry x="1510" y="910" width="190" height="80" as="geometry" />
        </mxCell>
        <mxCell id="ih9siL4Ndi_D1jkrxEXA-165" value="&lt;font style=&quot;font-size: 15px;&quot;&gt;Router:&amp;nbsp;&lt;/font&gt;&lt;div&gt;&lt;font style=&quot;font-size: 15px;&quot;&gt;Sub1 -&amp;nbsp;&lt;/font&gt;&lt;span style=&quot;font-size: 18px; background-color: initial;&quot;&gt;192.168.10.1 /28&lt;/span&gt;&lt;/div&gt;&lt;div&gt;&lt;font style=&quot;font-size: 15px;&quot;&gt;Sub2 -&amp;nbsp;&lt;/font&gt;&lt;span style=&quot;font-size: 18px; background-color: initial;&quot;&gt;192.168.10.17 /27&lt;/span&gt;&lt;/div&gt;&lt;div&gt;&lt;font style=&quot;font-size: 15px;&quot;&gt;Sub3 -&amp;nbsp;&lt;/font&gt;&lt;span style=&quot;font-size: 18px; background-color: initial;&quot;&gt;192.168.10.49 /27&lt;/span&gt;&lt;/div&gt;" style="text;html=1;align=center;verticalAlign=middle;resizable=0;points=[];autosize=1;strokeColor=none;fillColor=none;fontFamily=Architects Daughter;fontSource=https%3A%2F%2Ffonts.googleapis.com%2Fcss%3Ffamily%3DArchitects%2BDaughter;" parent="1" vertex="1">
          <mxGeometry x="1740" y="462.5" width="200" height="100" as="geometry" />
        </mxCell>
        <mxCell id="ih9siL4Ndi_D1jkrxEXA-166" value="" style="rounded=0;whiteSpace=wrap;html=1;sketch=1;hachureGap=4;jiggle=2;curveFitting=1;fontFamily=Architects Daughter;fontSource=https%3A%2F%2Ffonts.googleapis.com%2Fcss%3Ffamily%3DArchitects%2BDaughter;fillColor=none;" parent="1" vertex="1">
          <mxGeometry x="42" y="910" width="1342.5" height="530" as="geometry" />
        </mxCell>
        <mxCell id="ih9siL4Ndi_D1jkrxEXA-175" value="&lt;pre style=&quot;font-variant-numeric: normal; font-variant-east-asian: normal; font-variant-alternates: normal; font-variant-position: normal;&quot; class=&quot;western&quot;&gt;&lt;font color=&quot;#000000&quot;&gt;&lt;font face=&quot;Architects Daughter&quot;&gt;&lt;font style=&quot;font-size: 13pt&quot;&gt;192.168.10.50&lt;/font&gt;&lt;/font&gt;&lt;/font&gt;&lt;/pre&gt;" style="text;html=1;align=center;verticalAlign=middle;resizable=0;points=[];autosize=1;strokeColor=none;fillColor=none;fontFamily=Architects Daughter;fontSource=https%3A%2F%2Ffonts.googleapis.com%2Fcss%3Ffamily%3DArchitects%2BDaughter;" parent="1" vertex="1">
          <mxGeometry x="55" y="915" width="110" height="60" as="geometry" />
        </mxCell>
        <mxCell id="ih9siL4Ndi_D1jkrxEXA-176" value="&lt;font style=&quot;font-size: 16px;&quot;&gt;SUBNET 3 (Devs and Admins)&lt;/font&gt;&lt;span style=&quot;font-size: 16px;&quot;&gt;&amp;nbsp;-&lt;/span&gt;&lt;span style=&quot;font-size: 16px;&quot;&gt;&amp;nbsp; &amp;nbsp; &amp;nbsp; &amp;nbsp; &amp;nbsp;NETWORK IP :&amp;nbsp;&lt;/span&gt;&lt;span style=&quot;font-size: 16px;&quot;&gt;192.168.10.48&lt;/span&gt;&lt;span style=&quot;font-size: 16px;&quot;&gt;&amp;nbsp; &amp;nbsp; &amp;nbsp; &amp;nbsp; &amp;nbsp; MASK: 255.255.255.224&lt;/span&gt;" style="text;html=1;align=center;verticalAlign=middle;resizable=0;points=[];autosize=1;strokeColor=none;fillColor=none;fontFamily=Architects Daughter;fontSource=https%3A%2F%2Ffonts.googleapis.com%2Fcss%3Ffamily%3DArchitects%2BDaughter;" parent="1" vertex="1">
          <mxGeometry x="57" y="860" width="750" height="30" as="geometry" />
        </mxCell>
        <mxCell id="ih9siL4Ndi_D1jkrxEXA-177" value="&lt;span style=&quot;font-size: 15px;&quot;&gt;Soft. Dev 1&lt;/span&gt;" style="text;html=1;align=center;verticalAlign=middle;resizable=0;points=[];autosize=1;strokeColor=none;fillColor=none;fontFamily=Architects Daughter;fontSource=https%3A%2F%2Ffonts.googleapis.com%2Fcss%3Ffamily%3DArchitects%2BDaughter;" parent="1" vertex="1">
          <mxGeometry x="67" y="1080" width="100" height="30" as="geometry" />
        </mxCell>
        <mxCell id="ih9siL4Ndi_D1jkrxEXA-198" value="&lt;font style=&quot;font-size: 18px;&quot;&gt;EXPANSIONS&lt;/font&gt;" style="text;html=1;align=center;verticalAlign=middle;resizable=0;points=[];autosize=1;fontFamily=Architects Daughter;fontSource=https%3A%2F%2Ffonts.googleapis.com%2Fcss%3Ffamily%3DArchitects%2BDaughter;fillColor=#007FFF;" parent="1" vertex="1">
          <mxGeometry x="1158.5" y="1432.5" width="130" height="40" as="geometry" />
        </mxCell>
        <mxCell id="ih9siL4Ndi_D1jkrxEXA-215" style="edgeStyle=orthogonalEdgeStyle;rounded=0;sketch=1;hachureGap=4;jiggle=2;curveFitting=1;orthogonalLoop=1;jettySize=auto;html=1;entryX=1;entryY=0.25;entryDx=0;entryDy=0;fontFamily=Architects Daughter;fontSource=https%3A%2F%2Ffonts.googleapis.com%2Fcss%3Ffamily%3DArchitects%2BDaughter;" parent="1" target="ih9siL4Ndi_D1jkrxEXA-166" edge="1">
          <mxGeometry relative="1" as="geometry">
            <Array as="points">
              <mxPoint x="1711" y="990" />
            </Array>
            <mxPoint x="1710" y="590" as="sourcePoint" />
            <mxPoint x="1550.5" y="1006.49" as="targetPoint" />
          </mxGeometry>
        </mxCell>
        <mxCell id="ih9siL4Ndi_D1jkrxEXA-216" value="" style="shape=mxgraph.cisco.computers_and_peripherals.pc;html=1;pointerEvents=1;dashed=1;fillColor=none;strokeColor=#007FFF;strokeWidth=2;verticalLabelPosition=bottom;verticalAlign=top;align=center;outlineConnect=0;hachureGap=4;fontFamily=Architects Daughter;fontSource=https%3A%2F%2Ffonts.googleapis.com%2Fcss%3Ffamily%3DArchitects%2BDaughter;shadow=0;" parent="1" vertex="1">
          <mxGeometry x="1092.5" y="692.5" width="78" height="70" as="geometry" />
        </mxCell>
        <mxCell id="ih9siL4Ndi_D1jkrxEXA-217" value="" style="shape=mxgraph.cisco.computers_and_peripherals.pc;html=1;pointerEvents=1;dashed=1;fillColor=none;strokeColor=#007FFF;strokeWidth=2;verticalLabelPosition=bottom;verticalAlign=top;align=center;outlineConnect=0;hachureGap=4;fontFamily=Architects Daughter;fontSource=https%3A%2F%2Ffonts.googleapis.com%2Fcss%3Ffamily%3DArchitects%2BDaughter;shadow=0;" parent="1" vertex="1">
          <mxGeometry x="1264.5" y="695" width="78" height="70" as="geometry" />
        </mxCell>
        <mxCell id="ih9siL4Ndi_D1jkrxEXA-218" value="&lt;font style=&quot;font-size: 18px;&quot;&gt;192.168.10.30&lt;/font&gt;" style="text;html=1;align=center;verticalAlign=middle;resizable=0;points=[];autosize=1;strokeColor=none;fillColor=none;fontFamily=Architects Daughter;fontSource=https%3A%2F%2Ffonts.googleapis.com%2Fcss%3Ffamily%3DArchitects%2BDaughter;" parent="1" vertex="1">
          <mxGeometry x="951.5" y="650" width="110" height="40" as="geometry" />
        </mxCell>
        <mxCell id="ih9siL4Ndi_D1jkrxEXA-219" value="&lt;font style=&quot;font-size: 18px;&quot;&gt;192.168.10.31&lt;/font&gt;" style="text;html=1;align=center;verticalAlign=middle;resizable=0;points=[];autosize=1;strokeColor=none;fillColor=none;fontFamily=Architects Daughter;fontSource=https%3A%2F%2Ffonts.googleapis.com%2Fcss%3Ffamily%3DArchitects%2BDaughter;" parent="1" vertex="1">
          <mxGeometry x="1112.5" y="650" width="100" height="40" as="geometry" />
        </mxCell>
        <mxCell id="ih9siL4Ndi_D1jkrxEXA-221" value="&lt;font style=&quot;font-size: 15px;&quot;&gt;Future person 3&lt;/font&gt;" style="text;html=1;align=center;verticalAlign=middle;resizable=0;points=[];autosize=1;strokeColor=none;fillColor=none;fontFamily=Architects Daughter;fontSource=https%3A%2F%2Ffonts.googleapis.com%2Fcss%3Ffamily%3DArchitects%2BDaughter;" parent="1" vertex="1">
          <mxGeometry x="1212.5" y="765" width="140" height="30" as="geometry" />
        </mxCell>
        <mxCell id="ih9siL4Ndi_D1jkrxEXA-222" value="&lt;font style=&quot;font-size: 18px;&quot;&gt;EXPANSIONS&lt;/font&gt;" style="text;html=1;align=center;verticalAlign=middle;resizable=0;points=[];autosize=1;fontFamily=Architects Daughter;fontSource=https%3A%2F%2Ffonts.googleapis.com%2Fcss%3Ffamily%3DArchitects%2BDaughter;fillColor=#007FFF;" parent="1" vertex="1">
          <mxGeometry x="1063.5" y="795" width="130" height="40" as="geometry" />
        </mxCell>
        <mxCell id="ih9siL4Ndi_D1jkrxEXA-224" value="" style="image;sketch=0;aspect=fixed;html=1;points=[];align=center;fontSize=12;image=img/lib/mscae/Person.svg;hachureGap=4;jiggle=2;curveFitting=1;fontFamily=Architects Daughter;fontSource=https%3A%2F%2Ffonts.googleapis.com%2Fcss%3Ffamily%3DArchitects%2BDaughter;" parent="1" vertex="1">
          <mxGeometry x="67" y="532.5" width="51.8" height="70" as="geometry" />
        </mxCell>
        <mxCell id="ih9siL4Ndi_D1jkrxEXA-225" value="" style="image;sketch=0;aspect=fixed;html=1;points=[];align=center;fontSize=12;image=img/lib/mscae/Person.svg;hachureGap=4;jiggle=2;curveFitting=1;fontFamily=Architects Daughter;fontSource=https%3A%2F%2Ffonts.googleapis.com%2Fcss%3Ffamily%3DArchitects%2BDaughter;" parent="1" vertex="1">
          <mxGeometry x="186.1" y="535" width="51.8" height="70" as="geometry" />
        </mxCell>
        <mxCell id="ih9siL4Ndi_D1jkrxEXA-226" value="" style="image;sketch=0;aspect=fixed;html=1;points=[];align=center;fontSize=12;image=img/lib/mscae/Person.svg;hachureGap=4;jiggle=2;curveFitting=1;fontFamily=Architects Daughter;fontSource=https%3A%2F%2Ffonts.googleapis.com%2Fcss%3Ffamily%3DArchitects%2BDaughter;" parent="1" vertex="1">
          <mxGeometry x="306.1" y="535" width="51.8" height="70" as="geometry" />
        </mxCell>
        <mxCell id="ih9siL4Ndi_D1jkrxEXA-227" value="" style="image;sketch=0;aspect=fixed;html=1;points=[];align=center;fontSize=12;image=img/lib/mscae/Person.svg;hachureGap=4;jiggle=2;curveFitting=1;fontFamily=Architects Daughter;fontSource=https%3A%2F%2Ffonts.googleapis.com%2Fcss%3Ffamily%3DArchitects%2BDaughter;" parent="1" vertex="1">
          <mxGeometry x="425.2" y="537.5" width="51.8" height="70" as="geometry" />
        </mxCell>
        <mxCell id="ih9siL4Ndi_D1jkrxEXA-228" value="" style="image;sketch=0;aspect=fixed;html=1;points=[];align=center;fontSize=12;image=img/lib/mscae/Person.svg;hachureGap=4;jiggle=2;curveFitting=1;fontFamily=Architects Daughter;fontSource=https%3A%2F%2Ffonts.googleapis.com%2Fcss%3Ffamily%3DArchitects%2BDaughter;" parent="1" vertex="1">
          <mxGeometry x="529" y="537.5" width="51.8" height="70" as="geometry" />
        </mxCell>
        <mxCell id="ih9siL4Ndi_D1jkrxEXA-229" value="" style="image;sketch=0;aspect=fixed;html=1;points=[];align=center;fontSize=12;image=img/lib/mscae/Person.svg;hachureGap=4;jiggle=2;curveFitting=1;fontFamily=Architects Daughter;fontSource=https%3A%2F%2Ffonts.googleapis.com%2Fcss%3Ffamily%3DArchitects%2BDaughter;" parent="1" vertex="1">
          <mxGeometry x="629.1" y="537.5" width="51.8" height="70" as="geometry" />
        </mxCell>
        <mxCell id="ih9siL4Ndi_D1jkrxEXA-230" value="" style="image;sketch=0;aspect=fixed;html=1;points=[];align=center;fontSize=12;image=img/lib/mscae/Person.svg;hachureGap=4;jiggle=2;curveFitting=1;fontFamily=Architects Daughter;fontSource=https%3A%2F%2Ffonts.googleapis.com%2Fcss%3Ffamily%3DArchitects%2BDaughter;" parent="1" vertex="1">
          <mxGeometry x="739.1" y="537.5" width="51.8" height="70" as="geometry" />
        </mxCell>
        <mxCell id="ih9siL4Ndi_D1jkrxEXA-231" value="" style="image;sketch=0;aspect=fixed;html=1;points=[];align=center;fontSize=12;image=img/lib/mscae/Person.svg;hachureGap=4;jiggle=2;curveFitting=1;fontFamily=Architects Daughter;fontSource=https%3A%2F%2Ffonts.googleapis.com%2Fcss%3Ffamily%3DArchitects%2BDaughter;" parent="1" vertex="1">
          <mxGeometry x="846.5" y="538.99" width="51.8" height="70" as="geometry" />
        </mxCell>
        <mxCell id="ih9siL4Ndi_D1jkrxEXA-232" value="" style="image;sketch=0;aspect=fixed;html=1;points=[];align=center;fontSize=12;image=img/lib/mscae/Person.svg;hachureGap=4;jiggle=2;curveFitting=1;fontFamily=Architects Daughter;fontSource=https%3A%2F%2Ffonts.googleapis.com%2Fcss%3Ffamily%3DArchitects%2BDaughter;" parent="1" vertex="1">
          <mxGeometry x="956.5" y="538.99" width="51.8" height="70" as="geometry" />
        </mxCell>
        <mxCell id="ih9siL4Ndi_D1jkrxEXA-233" value="" style="image;sketch=0;aspect=fixed;html=1;points=[];align=center;fontSize=12;image=img/lib/mscae/Person.svg;hachureGap=4;jiggle=2;curveFitting=1;fontFamily=Architects Daughter;fontSource=https%3A%2F%2Ffonts.googleapis.com%2Fcss%3Ffamily%3DArchitects%2BDaughter;" parent="1" vertex="1">
          <mxGeometry x="1066.5" y="538.99" width="51.8" height="70" as="geometry" />
        </mxCell>
        <mxCell id="ih9siL4Ndi_D1jkrxEXA-234" value="" style="image;sketch=0;aspect=fixed;html=1;points=[];align=center;fontSize=12;image=img/lib/mscae/Person.svg;hachureGap=4;jiggle=2;curveFitting=1;fontFamily=Architects Daughter;fontSource=https%3A%2F%2Ffonts.googleapis.com%2Fcss%3Ffamily%3DArchitects%2BDaughter;" parent="1" vertex="1">
          <mxGeometry x="1173.9" y="540.48" width="51.8" height="70" as="geometry" />
        </mxCell>
        <mxCell id="ih9siL4Ndi_D1jkrxEXA-235" value="" style="image;sketch=0;aspect=fixed;html=1;points=[];align=center;fontSize=12;image=img/lib/mscae/Person.svg;hachureGap=4;jiggle=2;curveFitting=1;fontFamily=Architects Daughter;fontSource=https%3A%2F%2Ffonts.googleapis.com%2Fcss%3Ffamily%3DArchitects%2BDaughter;" parent="1" vertex="1">
          <mxGeometry x="1278.6000000000001" y="540" width="51.8" height="70" as="geometry" />
        </mxCell>
        <mxCell id="ih9siL4Ndi_D1jkrxEXA-236" value="" style="shape=mxgraph.cisco.computers_and_peripherals.pc;html=1;pointerEvents=1;dashed=1;fillColor=none;strokeColor=#007FFF;strokeWidth=2;verticalLabelPosition=bottom;verticalAlign=top;align=center;outlineConnect=0;hachureGap=4;fontFamily=Architects Daughter;fontSource=https%3A%2F%2Ffonts.googleapis.com%2Fcss%3Ffamily%3DArchitects%2BDaughter;shadow=0;" parent="1" vertex="1">
          <mxGeometry x="949.5" y="692.5" width="78" height="70" as="geometry" />
        </mxCell>
        <mxCell id="ih9siL4Ndi_D1jkrxEXA-238" value="&lt;span style=&quot;font-size: 15px;&quot;&gt;Future person 1&lt;/span&gt;" style="text;html=1;align=center;verticalAlign=middle;resizable=0;points=[];autosize=1;strokeColor=none;fillColor=none;fontFamily=Architects Daughter;fontSource=https%3A%2F%2Ffonts.googleapis.com%2Fcss%3Ffamily%3DArchitects%2BDaughter;" parent="1" vertex="1">
          <mxGeometry x="923.5" y="765" width="130" height="30" as="geometry" />
        </mxCell>
        <mxCell id="ih9siL4Ndi_D1jkrxEXA-242" value="&lt;span style=&quot;font-size: 15px;&quot;&gt;Future person 2&lt;/span&gt;" style="text;html=1;align=center;verticalAlign=middle;resizable=0;points=[];autosize=1;strokeColor=none;fillColor=none;fontFamily=Architects Daughter;fontSource=https%3A%2F%2Ffonts.googleapis.com%2Fcss%3Ffamily%3DArchitects%2BDaughter;" parent="1" vertex="1">
          <mxGeometry x="1058.5" y="765" width="140" height="30" as="geometry" />
        </mxCell>
        <mxCell id="ih9siL4Ndi_D1jkrxEXA-244" value="&lt;font style=&quot;font-size: 18px;&quot;&gt;192.168.10.8&lt;/font&gt;" style="text;html=1;align=center;verticalAlign=middle;resizable=0;points=[];autosize=1;strokeColor=none;fillColor=none;fontFamily=Architects Daughter;fontSource=https%3A%2F%2Ffonts.googleapis.com%2Fcss%3Ffamily%3DArchitects%2BDaughter;" parent="1" vertex="1">
          <mxGeometry x="695" y="75" width="100" height="40" as="geometry" />
        </mxCell>
        <mxCell id="5UN-SLRmVNN7RmcCoFSe-1" value="&lt;font style=&quot;font-size: 18px;&quot;&gt;192.168.10.29&lt;/font&gt;" style="text;html=1;align=center;verticalAlign=middle;resizable=0;points=[];autosize=1;strokeColor=none;fillColor=none;fontFamily=Architects Daughter;fontSource=https%3A%2F%2Ffonts.googleapis.com%2Fcss%3Ffamily%3DArchitects%2BDaughter;" parent="1" vertex="1">
          <mxGeometry x="1252.5" y="495" width="110" height="40" as="geometry" />
        </mxCell>
        <mxCell id="5UN-SLRmVNN7RmcCoFSe-2" value="&lt;font style=&quot;font-size: 18px;&quot;&gt;192.168.10.32&lt;/font&gt;" style="text;html=1;align=center;verticalAlign=middle;resizable=0;points=[];autosize=1;strokeColor=none;fillColor=none;fontFamily=Architects Daughter;fontSource=https%3A%2F%2Ffonts.googleapis.com%2Fcss%3Ffamily%3DArchitects%2BDaughter;" parent="1" vertex="1">
          <mxGeometry x="1236.5" y="650" width="110" height="40" as="geometry" />
        </mxCell>
        <mxCell id="Bbr6ncQkwG-6qGuts37S-2" value="" style="image;html=1;image=img/lib/clip_art/networking/Router_Icon_128x128.png;sketch=1;hachureGap=4;jiggle=2;curveFitting=1;fontFamily=Architects Daughter;fontSource=https%3A%2F%2Ffonts.googleapis.com%2Fcss%3Ffamily%3DArchitects%2BDaughter;" vertex="1" parent="1">
          <mxGeometry x="1680" y="547.74" width="60" height="52.26" as="geometry" />
        </mxCell>
        <mxCell id="Bbr6ncQkwG-6qGuts37S-3" value="&lt;font style=&quot;font-size: 18px;&quot;&gt;&lt;span style=&quot;font-size: 13pt; background-color: initial;&quot;&gt;192.168.10.72&lt;/span&gt;&amp;nbsp;-&amp;nbsp;&lt;span style=&quot;font-size: 13pt; background-color: initial;&quot;&gt;192.168.10.78&lt;/span&gt;&amp;nbsp;&amp;lt;- Empty IPs&amp;nbsp;&lt;/font&gt;&lt;span style=&quot;font-size: 18px; background-color: initial;&quot;&gt;range&lt;/span&gt;&lt;div&gt;&lt;span style=&quot;font-size: 18px;&quot;&gt;Both included&lt;/span&gt;&lt;/div&gt;" style="text;html=1;align=center;verticalAlign=middle;resizable=0;points=[];autosize=1;strokeColor=default;fillColor=none;fontFamily=Architects Daughter;fontSource=https%3A%2F%2Ffonts.googleapis.com%2Fcss%3Ffamily%3DArchitects%2BDaughter;" vertex="1" parent="1">
          <mxGeometry x="67" y="1360" width="380" height="60" as="geometry" />
        </mxCell>
        <mxCell id="Bbr6ncQkwG-6qGuts37S-4" value="&lt;pre style=&quot;font-variant-numeric: normal; font-variant-east-asian: normal; font-variant-alternates: normal; font-variant-position: normal;&quot; class=&quot;western&quot;&gt;&lt;font color=&quot;#000000&quot;&gt;&lt;font face=&quot;Architects Daughter&quot;&gt;&lt;font style=&quot;font-size: 13pt&quot;&gt;192.168.10.51&lt;/font&gt;&lt;/font&gt;&lt;/font&gt;&lt;/pre&gt;" style="text;html=1;align=center;verticalAlign=middle;resizable=0;points=[];autosize=1;strokeColor=none;fillColor=none;fontFamily=Architects Daughter;fontSource=https%3A%2F%2Ffonts.googleapis.com%2Fcss%3Ffamily%3DArchitects%2BDaughter;" vertex="1" parent="1">
          <mxGeometry x="60" y="955" width="100" height="60" as="geometry" />
        </mxCell>
        <mxCell id="Bbr6ncQkwG-6qGuts37S-5" value="" style="shape=mxgraph.cisco.people.androgenous_person;html=1;pointerEvents=1;dashed=0;fillColor=#00CC00;strokeColor=#ffffff;strokeWidth=2;verticalLabelPosition=bottom;verticalAlign=top;align=center;outlineConnect=0;hachureGap=4;fontFamily=Architects Daughter;fontSource=https%3A%2F%2Ffonts.googleapis.com%2Fcss%3Ffamily%3DArchitects%2BDaughter;" vertex="1" parent="1">
          <mxGeometry x="84.75" y="1005" width="64.5" height="72" as="geometry" />
        </mxCell>
        <mxCell id="Bbr6ncQkwG-6qGuts37S-7" value="&lt;pre style=&quot;font-variant-numeric: normal; font-variant-east-asian: normal; font-variant-alternates: normal; font-variant-position: normal;&quot; class=&quot;western&quot;&gt;&lt;font color=&quot;#000000&quot;&gt;&lt;font face=&quot;Architects Daughter&quot;&gt;&lt;font style=&quot;font-size: 13pt&quot;&gt;192.168.10.52&lt;/font&gt;&lt;/font&gt;&lt;/font&gt;&lt;/pre&gt;" style="text;html=1;align=center;verticalAlign=middle;resizable=0;points=[];autosize=1;strokeColor=none;fillColor=none;fontFamily=Architects Daughter;fontSource=https%3A%2F%2Ffonts.googleapis.com%2Fcss%3Ffamily%3DArchitects%2BDaughter;" vertex="1" parent="1">
          <mxGeometry x="165" y="915" width="110" height="60" as="geometry" />
        </mxCell>
        <mxCell id="Bbr6ncQkwG-6qGuts37S-8" value="&lt;span style=&quot;font-size: 15px;&quot;&gt;Soft. Dev 2&lt;/span&gt;" style="text;html=1;align=center;verticalAlign=middle;resizable=0;points=[];autosize=1;strokeColor=none;fillColor=none;fontFamily=Architects Daughter;fontSource=https%3A%2F%2Ffonts.googleapis.com%2Fcss%3Ffamily%3DArchitects%2BDaughter;" vertex="1" parent="1">
          <mxGeometry x="177" y="1080" width="100" height="30" as="geometry" />
        </mxCell>
        <mxCell id="Bbr6ncQkwG-6qGuts37S-9" value="&lt;pre style=&quot;font-variant-numeric: normal; font-variant-east-asian: normal; font-variant-alternates: normal; font-variant-position: normal;&quot; class=&quot;western&quot;&gt;&lt;font color=&quot;#000000&quot;&gt;&lt;font face=&quot;Architects Daughter&quot;&gt;&lt;font style=&quot;font-size: 13pt&quot;&gt;192.168.10.53&lt;/font&gt;&lt;/font&gt;&lt;/font&gt;&lt;/pre&gt;" style="text;html=1;align=center;verticalAlign=middle;resizable=0;points=[];autosize=1;strokeColor=none;fillColor=none;fontFamily=Architects Daughter;fontSource=https%3A%2F%2Ffonts.googleapis.com%2Fcss%3Ffamily%3DArchitects%2BDaughter;" vertex="1" parent="1">
          <mxGeometry x="165" y="955" width="110" height="60" as="geometry" />
        </mxCell>
        <mxCell id="Bbr6ncQkwG-6qGuts37S-10" value="" style="shape=mxgraph.cisco.people.androgenous_person;html=1;pointerEvents=1;dashed=0;fillColor=#00CC00;strokeColor=#ffffff;strokeWidth=2;verticalLabelPosition=bottom;verticalAlign=top;align=center;outlineConnect=0;hachureGap=4;fontFamily=Architects Daughter;fontSource=https%3A%2F%2Ffonts.googleapis.com%2Fcss%3Ffamily%3DArchitects%2BDaughter;" vertex="1" parent="1">
          <mxGeometry x="194.75" y="1005" width="64.5" height="72" as="geometry" />
        </mxCell>
        <mxCell id="Bbr6ncQkwG-6qGuts37S-11" value="&lt;pre style=&quot;font-variant-numeric: normal; font-variant-east-asian: normal; font-variant-alternates: normal; font-variant-position: normal;&quot; class=&quot;western&quot;&gt;&lt;font color=&quot;#000000&quot;&gt;&lt;font face=&quot;Architects Daughter&quot;&gt;&lt;font style=&quot;font-size: 13pt&quot;&gt;192.168.10.54&lt;/font&gt;&lt;/font&gt;&lt;/font&gt;&lt;/pre&gt;" style="text;html=1;align=center;verticalAlign=middle;resizable=0;points=[];autosize=1;strokeColor=none;fillColor=none;fontFamily=Architects Daughter;fontSource=https%3A%2F%2Ffonts.googleapis.com%2Fcss%3Ffamily%3DArchitects%2BDaughter;" vertex="1" parent="1">
          <mxGeometry x="272" y="915" width="110" height="60" as="geometry" />
        </mxCell>
        <mxCell id="Bbr6ncQkwG-6qGuts37S-12" value="&lt;span style=&quot;font-size: 15px;&quot;&gt;Soft. Dev 3&lt;/span&gt;" style="text;html=1;align=center;verticalAlign=middle;resizable=0;points=[];autosize=1;strokeColor=none;fillColor=none;fontFamily=Architects Daughter;fontSource=https%3A%2F%2Ffonts.googleapis.com%2Fcss%3Ffamily%3DArchitects%2BDaughter;" vertex="1" parent="1">
          <mxGeometry x="284" y="1080" width="100" height="30" as="geometry" />
        </mxCell>
        <mxCell id="Bbr6ncQkwG-6qGuts37S-13" value="&lt;pre style=&quot;font-variant-numeric: normal; font-variant-east-asian: normal; font-variant-alternates: normal; font-variant-position: normal;&quot; class=&quot;western&quot;&gt;&lt;font color=&quot;#000000&quot;&gt;&lt;font face=&quot;Architects Daughter&quot;&gt;&lt;font style=&quot;font-size: 13pt&quot;&gt;192.168.10.55&lt;/font&gt;&lt;/font&gt;&lt;/font&gt;&lt;/pre&gt;" style="text;html=1;align=center;verticalAlign=middle;resizable=0;points=[];autosize=1;strokeColor=none;fillColor=none;fontFamily=Architects Daughter;fontSource=https%3A%2F%2Ffonts.googleapis.com%2Fcss%3Ffamily%3DArchitects%2BDaughter;" vertex="1" parent="1">
          <mxGeometry x="272" y="955" width="110" height="60" as="geometry" />
        </mxCell>
        <mxCell id="Bbr6ncQkwG-6qGuts37S-14" value="" style="shape=mxgraph.cisco.people.androgenous_person;html=1;pointerEvents=1;dashed=0;fillColor=#00CC00;strokeColor=#ffffff;strokeWidth=2;verticalLabelPosition=bottom;verticalAlign=top;align=center;outlineConnect=0;hachureGap=4;fontFamily=Architects Daughter;fontSource=https%3A%2F%2Ffonts.googleapis.com%2Fcss%3Ffamily%3DArchitects%2BDaughter;" vertex="1" parent="1">
          <mxGeometry x="301.75" y="1005" width="64.5" height="72" as="geometry" />
        </mxCell>
        <mxCell id="Bbr6ncQkwG-6qGuts37S-15" value="&lt;pre style=&quot;font-variant-numeric: normal; font-variant-east-asian: normal; font-variant-alternates: normal; font-variant-position: normal;&quot; class=&quot;western&quot;&gt;&lt;font color=&quot;#000000&quot;&gt;&lt;font face=&quot;Architects Daughter&quot;&gt;&lt;font style=&quot;font-size: 13pt&quot;&gt;192.168.10.56&lt;/font&gt;&lt;/font&gt;&lt;/font&gt;&lt;/pre&gt;" style="text;html=1;align=center;verticalAlign=middle;resizable=0;points=[];autosize=1;strokeColor=none;fillColor=none;fontFamily=Architects Daughter;fontSource=https%3A%2F%2Ffonts.googleapis.com%2Fcss%3Ffamily%3DArchitects%2BDaughter;" vertex="1" parent="1">
          <mxGeometry x="382" y="915" width="110" height="60" as="geometry" />
        </mxCell>
        <mxCell id="Bbr6ncQkwG-6qGuts37S-16" value="&lt;span style=&quot;font-size: 15px;&quot;&gt;Soft. Dev 4&lt;/span&gt;" style="text;html=1;align=center;verticalAlign=middle;resizable=0;points=[];autosize=1;strokeColor=none;fillColor=none;fontFamily=Architects Daughter;fontSource=https%3A%2F%2Ffonts.googleapis.com%2Fcss%3Ffamily%3DArchitects%2BDaughter;" vertex="1" parent="1">
          <mxGeometry x="389" y="1080" width="110" height="30" as="geometry" />
        </mxCell>
        <mxCell id="Bbr6ncQkwG-6qGuts37S-17" value="&lt;pre style=&quot;font-variant-numeric: normal; font-variant-east-asian: normal; font-variant-alternates: normal; font-variant-position: normal;&quot; class=&quot;western&quot;&gt;&lt;font color=&quot;#000000&quot;&gt;&lt;font face=&quot;Architects Daughter&quot;&gt;&lt;font style=&quot;font-size: 13pt&quot;&gt;192.168.10.57&lt;/font&gt;&lt;/font&gt;&lt;/font&gt;&lt;/pre&gt;" style="text;html=1;align=center;verticalAlign=middle;resizable=0;points=[];autosize=1;strokeColor=none;fillColor=none;fontFamily=Architects Daughter;fontSource=https%3A%2F%2Ffonts.googleapis.com%2Fcss%3Ffamily%3DArchitects%2BDaughter;" vertex="1" parent="1">
          <mxGeometry x="382" y="955" width="110" height="60" as="geometry" />
        </mxCell>
        <mxCell id="Bbr6ncQkwG-6qGuts37S-18" value="" style="shape=mxgraph.cisco.people.androgenous_person;html=1;pointerEvents=1;dashed=0;fillColor=#00CC00;strokeColor=#ffffff;strokeWidth=2;verticalLabelPosition=bottom;verticalAlign=top;align=center;outlineConnect=0;hachureGap=4;fontFamily=Architects Daughter;fontSource=https%3A%2F%2Ffonts.googleapis.com%2Fcss%3Ffamily%3DArchitects%2BDaughter;" vertex="1" parent="1">
          <mxGeometry x="411.75" y="1005" width="64.5" height="72" as="geometry" />
        </mxCell>
        <mxCell id="Bbr6ncQkwG-6qGuts37S-19" value="&lt;pre style=&quot;font-variant-numeric: normal; font-variant-east-asian: normal; font-variant-alternates: normal; font-variant-position: normal;&quot; class=&quot;western&quot;&gt;&lt;font color=&quot;#000000&quot;&gt;&lt;font face=&quot;Architects Daughter&quot;&gt;&lt;font style=&quot;font-size: 13pt&quot;&gt;192.168.10.58&lt;/font&gt;&lt;/font&gt;&lt;/font&gt;&lt;/pre&gt;" style="text;html=1;align=center;verticalAlign=middle;resizable=0;points=[];autosize=1;strokeColor=none;fillColor=none;fontFamily=Architects Daughter;fontSource=https%3A%2F%2Ffonts.googleapis.com%2Fcss%3Ffamily%3DArchitects%2BDaughter;" vertex="1" parent="1">
          <mxGeometry x="487" y="915" width="110" height="60" as="geometry" />
        </mxCell>
        <mxCell id="Bbr6ncQkwG-6qGuts37S-20" value="&lt;span style=&quot;font-size: 15px;&quot;&gt;Soft. Dev 5&lt;/span&gt;" style="text;html=1;align=center;verticalAlign=middle;resizable=0;points=[];autosize=1;strokeColor=none;fillColor=none;fontFamily=Architects Daughter;fontSource=https%3A%2F%2Ffonts.googleapis.com%2Fcss%3Ffamily%3DArchitects%2BDaughter;" vertex="1" parent="1">
          <mxGeometry x="494" y="1080" width="110" height="30" as="geometry" />
        </mxCell>
        <mxCell id="Bbr6ncQkwG-6qGuts37S-21" value="&lt;pre style=&quot;font-variant-numeric: normal; font-variant-east-asian: normal; font-variant-alternates: normal; font-variant-position: normal;&quot; class=&quot;western&quot;&gt;&lt;font color=&quot;#000000&quot;&gt;&lt;font face=&quot;Architects Daughter&quot;&gt;&lt;font style=&quot;font-size: 13pt&quot;&gt;192.168.10.59&lt;/font&gt;&lt;/font&gt;&lt;/font&gt;&lt;/pre&gt;" style="text;html=1;align=center;verticalAlign=middle;resizable=0;points=[];autosize=1;strokeColor=none;fillColor=none;fontFamily=Architects Daughter;fontSource=https%3A%2F%2Ffonts.googleapis.com%2Fcss%3Ffamily%3DArchitects%2BDaughter;" vertex="1" parent="1">
          <mxGeometry x="487" y="955" width="110" height="60" as="geometry" />
        </mxCell>
        <mxCell id="Bbr6ncQkwG-6qGuts37S-22" value="" style="shape=mxgraph.cisco.people.androgenous_person;html=1;pointerEvents=1;dashed=0;fillColor=#00CC00;strokeColor=#ffffff;strokeWidth=2;verticalLabelPosition=bottom;verticalAlign=top;align=center;outlineConnect=0;hachureGap=4;fontFamily=Architects Daughter;fontSource=https%3A%2F%2Ffonts.googleapis.com%2Fcss%3Ffamily%3DArchitects%2BDaughter;" vertex="1" parent="1">
          <mxGeometry x="516.75" y="1005" width="64.5" height="72" as="geometry" />
        </mxCell>
        <mxCell id="Bbr6ncQkwG-6qGuts37S-23" value="&lt;pre style=&quot;font-variant-numeric: normal; font-variant-east-asian: normal; font-variant-alternates: normal; font-variant-position: normal;&quot; class=&quot;western&quot;&gt;&lt;font color=&quot;#000000&quot;&gt;&lt;font face=&quot;Architects Daughter&quot;&gt;&lt;font style=&quot;font-size: 13pt&quot;&gt;192.168.10.60&lt;/font&gt;&lt;/font&gt;&lt;/font&gt;&lt;/pre&gt;" style="text;html=1;align=center;verticalAlign=middle;resizable=0;points=[];autosize=1;strokeColor=none;fillColor=none;fontFamily=Architects Daughter;fontSource=https%3A%2F%2Ffonts.googleapis.com%2Fcss%3Ffamily%3DArchitects%2BDaughter;" vertex="1" parent="1">
          <mxGeometry x="597" y="915" width="110" height="60" as="geometry" />
        </mxCell>
        <mxCell id="Bbr6ncQkwG-6qGuts37S-24" value="&lt;span style=&quot;font-size: 15px;&quot;&gt;Soft. Dev 6&lt;/span&gt;" style="text;html=1;align=center;verticalAlign=middle;resizable=0;points=[];autosize=1;strokeColor=none;fillColor=none;fontFamily=Architects Daughter;fontSource=https%3A%2F%2Ffonts.googleapis.com%2Fcss%3Ffamily%3DArchitects%2BDaughter;" vertex="1" parent="1">
          <mxGeometry x="604" y="1080" width="110" height="30" as="geometry" />
        </mxCell>
        <mxCell id="Bbr6ncQkwG-6qGuts37S-25" value="&lt;pre style=&quot;font-variant-numeric: normal; font-variant-east-asian: normal; font-variant-alternates: normal; font-variant-position: normal;&quot; class=&quot;western&quot;&gt;&lt;font color=&quot;#000000&quot;&gt;&lt;font face=&quot;Architects Daughter&quot;&gt;&lt;font style=&quot;font-size: 13pt&quot;&gt;192.168.10.61&lt;/font&gt;&lt;/font&gt;&lt;/font&gt;&lt;/pre&gt;" style="text;html=1;align=center;verticalAlign=middle;resizable=0;points=[];autosize=1;strokeColor=none;fillColor=none;fontFamily=Architects Daughter;fontSource=https%3A%2F%2Ffonts.googleapis.com%2Fcss%3Ffamily%3DArchitects%2BDaughter;" vertex="1" parent="1">
          <mxGeometry x="602" y="955" width="100" height="60" as="geometry" />
        </mxCell>
        <mxCell id="Bbr6ncQkwG-6qGuts37S-26" value="" style="shape=mxgraph.cisco.people.androgenous_person;html=1;pointerEvents=1;dashed=0;fillColor=#00CC00;strokeColor=#ffffff;strokeWidth=2;verticalLabelPosition=bottom;verticalAlign=top;align=center;outlineConnect=0;hachureGap=4;fontFamily=Architects Daughter;fontSource=https%3A%2F%2Ffonts.googleapis.com%2Fcss%3Ffamily%3DArchitects%2BDaughter;" vertex="1" parent="1">
          <mxGeometry x="626.75" y="1005" width="64.5" height="72" as="geometry" />
        </mxCell>
        <mxCell id="Bbr6ncQkwG-6qGuts37S-27" value="&lt;pre style=&quot;font-variant-numeric: normal; font-variant-east-asian: normal; font-variant-alternates: normal; font-variant-position: normal;&quot; class=&quot;western&quot;&gt;&lt;font color=&quot;#000000&quot;&gt;&lt;font face=&quot;Architects Daughter&quot;&gt;&lt;font style=&quot;font-size: 13pt&quot;&gt;192.168.10.62&lt;/font&gt;&lt;/font&gt;&lt;/font&gt;&lt;/pre&gt;" style="text;html=1;align=center;verticalAlign=middle;resizable=0;points=[];autosize=1;strokeColor=none;fillColor=none;fontFamily=Architects Daughter;fontSource=https%3A%2F%2Ffonts.googleapis.com%2Fcss%3Ffamily%3DArchitects%2BDaughter;" vertex="1" parent="1">
          <mxGeometry x="704" y="915" width="110" height="60" as="geometry" />
        </mxCell>
        <mxCell id="Bbr6ncQkwG-6qGuts37S-28" value="&lt;span style=&quot;font-size: 15px;&quot;&gt;Soft. Dev 7&lt;/span&gt;" style="text;html=1;align=center;verticalAlign=middle;resizable=0;points=[];autosize=1;strokeColor=none;fillColor=none;fontFamily=Architects Daughter;fontSource=https%3A%2F%2Ffonts.googleapis.com%2Fcss%3Ffamily%3DArchitects%2BDaughter;" vertex="1" parent="1">
          <mxGeometry x="711" y="1080" width="110" height="30" as="geometry" />
        </mxCell>
        <mxCell id="Bbr6ncQkwG-6qGuts37S-29" value="&lt;pre style=&quot;font-variant-numeric: normal; font-variant-east-asian: normal; font-variant-alternates: normal; font-variant-position: normal;&quot; class=&quot;western&quot;&gt;&lt;font color=&quot;#000000&quot;&gt;&lt;font face=&quot;Architects Daughter&quot;&gt;&lt;font style=&quot;font-size: 13pt&quot;&gt;192.168.10.63&lt;/font&gt;&lt;/font&gt;&lt;/font&gt;&lt;/pre&gt;" style="text;html=1;align=center;verticalAlign=middle;resizable=0;points=[];autosize=1;strokeColor=none;fillColor=none;fontFamily=Architects Daughter;fontSource=https%3A%2F%2Ffonts.googleapis.com%2Fcss%3Ffamily%3DArchitects%2BDaughter;" vertex="1" parent="1">
          <mxGeometry x="704" y="955" width="110" height="60" as="geometry" />
        </mxCell>
        <mxCell id="Bbr6ncQkwG-6qGuts37S-30" value="" style="shape=mxgraph.cisco.people.androgenous_person;html=1;pointerEvents=1;dashed=0;fillColor=#00CC00;strokeColor=#ffffff;strokeWidth=2;verticalLabelPosition=bottom;verticalAlign=top;align=center;outlineConnect=0;hachureGap=4;fontFamily=Architects Daughter;fontSource=https%3A%2F%2Ffonts.googleapis.com%2Fcss%3Ffamily%3DArchitects%2BDaughter;" vertex="1" parent="1">
          <mxGeometry x="733.75" y="1005" width="64.5" height="72" as="geometry" />
        </mxCell>
        <mxCell id="Bbr6ncQkwG-6qGuts37S-31" value="&lt;pre style=&quot;font-variant-numeric: normal; font-variant-east-asian: normal; font-variant-alternates: normal; font-variant-position: normal;&quot; class=&quot;western&quot;&gt;&lt;font color=&quot;#000000&quot;&gt;&lt;font face=&quot;Architects Daughter&quot;&gt;&lt;font style=&quot;font-size: 13pt&quot;&gt;192.168.10.64&lt;/font&gt;&lt;/font&gt;&lt;/font&gt;&lt;/pre&gt;" style="text;html=1;align=center;verticalAlign=middle;resizable=0;points=[];autosize=1;strokeColor=none;fillColor=none;fontFamily=Architects Daughter;fontSource=https%3A%2F%2Ffonts.googleapis.com%2Fcss%3Ffamily%3DArchitects%2BDaughter;" vertex="1" parent="1">
          <mxGeometry x="814" y="915" width="110" height="60" as="geometry" />
        </mxCell>
        <mxCell id="Bbr6ncQkwG-6qGuts37S-32" value="&lt;span style=&quot;font-size: 15px;&quot;&gt;Soft. Dev 8&lt;/span&gt;" style="text;html=1;align=center;verticalAlign=middle;resizable=0;points=[];autosize=1;strokeColor=none;fillColor=none;fontFamily=Architects Daughter;fontSource=https%3A%2F%2Ffonts.googleapis.com%2Fcss%3Ffamily%3DArchitects%2BDaughter;" vertex="1" parent="1">
          <mxGeometry x="821" y="1080" width="110" height="30" as="geometry" />
        </mxCell>
        <mxCell id="Bbr6ncQkwG-6qGuts37S-33" value="&lt;pre style=&quot;font-variant-numeric: normal; font-variant-east-asian: normal; font-variant-alternates: normal; font-variant-position: normal;&quot; class=&quot;western&quot;&gt;&lt;font color=&quot;#000000&quot;&gt;&lt;font face=&quot;Architects Daughter&quot;&gt;&lt;font style=&quot;font-size: 13pt&quot;&gt;192.168.10.65&lt;/font&gt;&lt;/font&gt;&lt;/font&gt;&lt;/pre&gt;" style="text;html=1;align=center;verticalAlign=middle;resizable=0;points=[];autosize=1;strokeColor=none;fillColor=none;fontFamily=Architects Daughter;fontSource=https%3A%2F%2Ffonts.googleapis.com%2Fcss%3Ffamily%3DArchitects%2BDaughter;" vertex="1" parent="1">
          <mxGeometry x="814" y="955" width="110" height="60" as="geometry" />
        </mxCell>
        <mxCell id="Bbr6ncQkwG-6qGuts37S-34" value="" style="shape=mxgraph.cisco.people.androgenous_person;html=1;pointerEvents=1;dashed=0;fillColor=#00CC00;strokeColor=#ffffff;strokeWidth=2;verticalLabelPosition=bottom;verticalAlign=top;align=center;outlineConnect=0;hachureGap=4;fontFamily=Architects Daughter;fontSource=https%3A%2F%2Ffonts.googleapis.com%2Fcss%3Ffamily%3DArchitects%2BDaughter;" vertex="1" parent="1">
          <mxGeometry x="843.75" y="1005" width="64.5" height="72" as="geometry" />
        </mxCell>
        <mxCell id="Bbr6ncQkwG-6qGuts37S-35" value="&lt;span style=&quot;font-size: 15px;&quot;&gt;Sys. Admin 1&lt;/span&gt;" style="text;html=1;align=center;verticalAlign=middle;resizable=0;points=[];autosize=1;strokeColor=none;fillColor=none;fontFamily=Architects Daughter;fontSource=https%3A%2F%2Ffonts.googleapis.com%2Fcss%3Ffamily%3DArchitects%2BDaughter;" vertex="1" parent="1">
          <mxGeometry x="990.9" y="1080" width="100" height="30" as="geometry" />
        </mxCell>
        <mxCell id="Bbr6ncQkwG-6qGuts37S-36" value="&lt;pre style=&quot;font-variant-numeric: normal; font-variant-east-asian: normal; font-variant-alternates: normal; font-variant-position: normal;&quot; class=&quot;western&quot;&gt;&lt;font color=&quot;#000000&quot;&gt;&lt;font face=&quot;Architects Daughter&quot;&gt;&lt;font style=&quot;font-size: 13pt&quot;&gt;192.168.10.66&lt;/font&gt;&lt;/font&gt;&lt;/font&gt;&lt;/pre&gt;" style="text;html=1;align=center;verticalAlign=middle;resizable=0;points=[];autosize=1;strokeColor=none;fillColor=none;fontFamily=Architects Daughter;fontSource=https%3A%2F%2Ffonts.googleapis.com%2Fcss%3Ffamily%3DArchitects%2BDaughter;" vertex="1" parent="1">
          <mxGeometry x="985.9" y="940" width="110" height="60" as="geometry" />
        </mxCell>
        <mxCell id="Bbr6ncQkwG-6qGuts37S-37" value="" style="shape=mxgraph.cisco.people.androgenous_person;html=1;pointerEvents=1;dashed=0;fillColor=#FF6666;strokeColor=#ffffff;strokeWidth=2;verticalLabelPosition=bottom;verticalAlign=top;align=center;outlineConnect=0;hachureGap=4;fontFamily=Architects Daughter;fontSource=https%3A%2F%2Ffonts.googleapis.com%2Fcss%3Ffamily%3DArchitects%2BDaughter;" vertex="1" parent="1">
          <mxGeometry x="1008.65" y="1005" width="64.5" height="72" as="geometry" />
        </mxCell>
        <mxCell id="Bbr6ncQkwG-6qGuts37S-38" value="&lt;span style=&quot;font-size: 15px;&quot;&gt;Sys. Admin 2&lt;/span&gt;" style="text;html=1;align=center;verticalAlign=middle;resizable=0;points=[];autosize=1;strokeColor=none;fillColor=none;fontFamily=Architects Daughter;fontSource=https%3A%2F%2Ffonts.googleapis.com%2Fcss%3Ffamily%3DArchitects%2BDaughter;" vertex="1" parent="1">
          <mxGeometry x="1112.5" y="1080" width="110" height="30" as="geometry" />
        </mxCell>
        <mxCell id="Bbr6ncQkwG-6qGuts37S-39" value="&lt;pre style=&quot;font-variant-numeric: normal; font-variant-east-asian: normal; font-variant-alternates: normal; font-variant-position: normal;&quot; class=&quot;western&quot;&gt;&lt;font color=&quot;#000000&quot;&gt;&lt;font face=&quot;Architects Daughter&quot;&gt;&lt;font style=&quot;font-size: 13pt&quot;&gt;192.168.10.67&lt;/font&gt;&lt;/font&gt;&lt;/font&gt;&lt;/pre&gt;" style="text;html=1;align=center;verticalAlign=middle;resizable=0;points=[];autosize=1;strokeColor=none;fillColor=none;fontFamily=Architects Daughter;fontSource=https%3A%2F%2Ffonts.googleapis.com%2Fcss%3Ffamily%3DArchitects%2BDaughter;" vertex="1" parent="1">
          <mxGeometry x="1112.5" y="940" width="110" height="60" as="geometry" />
        </mxCell>
        <mxCell id="Bbr6ncQkwG-6qGuts37S-40" value="" style="shape=mxgraph.cisco.people.androgenous_person;html=1;pointerEvents=1;dashed=0;fillColor=#FF6666;strokeColor=#ffffff;strokeWidth=2;verticalLabelPosition=bottom;verticalAlign=top;align=center;outlineConnect=0;hachureGap=4;fontFamily=Architects Daughter;fontSource=https%3A%2F%2Ffonts.googleapis.com%2Fcss%3Ffamily%3DArchitects%2BDaughter;" vertex="1" parent="1">
          <mxGeometry x="1135.25" y="1005" width="64.5" height="72" as="geometry" />
        </mxCell>
        <mxCell id="Bbr6ncQkwG-6qGuts37S-41" value="&lt;pre style=&quot;font-variant-numeric: normal; font-variant-east-asian: normal; font-variant-alternates: normal; font-variant-position: normal;&quot; class=&quot;western&quot;&gt;&lt;font color=&quot;#000000&quot;&gt;&lt;font face=&quot;Architects Daughter&quot;&gt;&lt;font style=&quot;font-size: 13pt&quot;&gt;192.168.10.68&lt;/font&gt;&lt;/font&gt;&lt;/font&gt;&lt;/pre&gt;" style="text;html=1;align=center;verticalAlign=middle;resizable=0;points=[];autosize=1;strokeColor=none;fillColor=none;fontFamily=Architects Daughter;fontSource=https%3A%2F%2Ffonts.googleapis.com%2Fcss%3Ffamily%3DArchitects%2BDaughter;" vertex="1" parent="1">
          <mxGeometry x="1073" y="1225" width="110" height="60" as="geometry" />
        </mxCell>
        <mxCell id="Bbr6ncQkwG-6qGuts37S-42" value="&lt;span style=&quot;font-size: 15px;&quot;&gt;Future Dev 1&lt;/span&gt;" style="text;html=1;align=center;verticalAlign=middle;resizable=0;points=[];autosize=1;strokeColor=none;fillColor=none;fontFamily=Architects Daughter;fontSource=https%3A%2F%2Ffonts.googleapis.com%2Fcss%3Ffamily%3DArchitects%2BDaughter;" vertex="1" parent="1">
          <mxGeometry x="1080" y="1390" width="110" height="30" as="geometry" />
        </mxCell>
        <mxCell id="Bbr6ncQkwG-6qGuts37S-43" value="&lt;pre style=&quot;font-variant-numeric: normal; font-variant-east-asian: normal; font-variant-alternates: normal; font-variant-position: normal;&quot; class=&quot;western&quot;&gt;&lt;font color=&quot;#000000&quot;&gt;&lt;font face=&quot;Architects Daughter&quot;&gt;&lt;font style=&quot;font-size: 13pt&quot;&gt;192.168.10.69&lt;/font&gt;&lt;/font&gt;&lt;/font&gt;&lt;/pre&gt;" style="text;html=1;align=center;verticalAlign=middle;resizable=0;points=[];autosize=1;strokeColor=none;fillColor=none;fontFamily=Architects Daughter;fontSource=https%3A%2F%2Ffonts.googleapis.com%2Fcss%3Ffamily%3DArchitects%2BDaughter;" vertex="1" parent="1">
          <mxGeometry x="1073" y="1265" width="110" height="60" as="geometry" />
        </mxCell>
        <mxCell id="Bbr6ncQkwG-6qGuts37S-44" value="" style="shape=mxgraph.cisco.people.androgenous_person;html=1;pointerEvents=1;dashed=1;fillColor=default;strokeColor=#00CC00;strokeWidth=2;verticalLabelPosition=bottom;verticalAlign=top;align=center;outlineConnect=0;hachureGap=4;fontFamily=Architects Daughter;fontSource=https%3A%2F%2Ffonts.googleapis.com%2Fcss%3Ffamily%3DArchitects%2BDaughter;" vertex="1" parent="1">
          <mxGeometry x="1102.75" y="1315" width="64.5" height="72" as="geometry" />
        </mxCell>
        <mxCell id="Bbr6ncQkwG-6qGuts37S-45" value="&lt;pre style=&quot;font-variant-numeric: normal; font-variant-east-asian: normal; font-variant-alternates: normal; font-variant-position: normal;&quot; class=&quot;western&quot;&gt;&lt;font color=&quot;#000000&quot;&gt;&lt;font face=&quot;Architects Daughter&quot;&gt;&lt;font style=&quot;font-size: 13pt&quot;&gt;192.168.10.70&lt;/font&gt;&lt;/font&gt;&lt;/font&gt;&lt;/pre&gt;" style="text;html=1;align=center;verticalAlign=middle;resizable=0;points=[];autosize=1;strokeColor=none;fillColor=none;fontFamily=Architects Daughter;fontSource=https%3A%2F%2Ffonts.googleapis.com%2Fcss%3Ffamily%3DArchitects%2BDaughter;" vertex="1" parent="1">
          <mxGeometry x="1230.5" y="1225" width="110" height="60" as="geometry" />
        </mxCell>
        <mxCell id="Bbr6ncQkwG-6qGuts37S-46" value="&lt;span style=&quot;font-size: 15px;&quot;&gt;Future Dev 2&lt;/span&gt;" style="text;html=1;align=center;verticalAlign=middle;resizable=0;points=[];autosize=1;strokeColor=none;fillColor=none;fontFamily=Architects Daughter;fontSource=https%3A%2F%2Ffonts.googleapis.com%2Fcss%3Ffamily%3DArchitects%2BDaughter;" vertex="1" parent="1">
          <mxGeometry x="1232.5" y="1390" width="120" height="30" as="geometry" />
        </mxCell>
        <mxCell id="Bbr6ncQkwG-6qGuts37S-47" value="&lt;pre style=&quot;font-variant-numeric: normal; font-variant-east-asian: normal; font-variant-alternates: normal; font-variant-position: normal;&quot; class=&quot;western&quot;&gt;&lt;font color=&quot;#000000&quot;&gt;&lt;font face=&quot;Architects Daughter&quot;&gt;&lt;font style=&quot;font-size: 13pt&quot;&gt;192.168.10.71&lt;/font&gt;&lt;/font&gt;&lt;/font&gt;&lt;/pre&gt;" style="text;html=1;align=center;verticalAlign=middle;resizable=0;points=[];autosize=1;strokeColor=none;fillColor=none;fontFamily=Architects Daughter;fontSource=https%3A%2F%2Ffonts.googleapis.com%2Fcss%3Ffamily%3DArchitects%2BDaughter;" vertex="1" parent="1">
          <mxGeometry x="1235.5" y="1265" width="100" height="60" as="geometry" />
        </mxCell>
        <mxCell id="Bbr6ncQkwG-6qGuts37S-48" value="" style="shape=mxgraph.cisco.people.androgenous_person;html=1;pointerEvents=1;dashed=1;fillColor=default;strokeColor=#00CC00;strokeWidth=2;verticalLabelPosition=bottom;verticalAlign=top;align=center;outlineConnect=0;hachureGap=4;fontFamily=Architects Daughter;fontSource=https%3A%2F%2Ffonts.googleapis.com%2Fcss%3Ffamily%3DArchitects%2BDaughter;" vertex="1" parent="1">
          <mxGeometry x="1260.25" y="1315" width="64.5" height="72" as="geometry" />
        </mxCell>
      </root>
    </mxGraphModel>
  </diagram>
</mxfile>
